<svg width="15" height="14" viewBox="0 0 15 14" fill="none" xmlns="http://www.w3.org/2000/svg">
<g id="Group 63">
<path id="Vector" d="M15 6.99999L13.3297 5.44114C13.3297 5.44114 12.3521 4.60492 11.5679 4.6142C10.784 4.62375 10.5204 5.16258 10.0413 5.14712C9.7923 5.13897 9.68093 5.03329 9.65102 5.00377L9.6431 4.99562C9.61441 4.96695 9.50457 4.86211 9.49602 4.63274C9.47924 4.18556 10.0565 3.93962 10.0666 3.20769C10.077 2.47603 9.18082 1.56336 9.18082 1.56336L7.51053 0.00449445L7.50565 0L7.50076 0.00449445L5.83077 1.56336C5.83077 1.56336 4.93461 2.47603 4.94467 3.20769C4.95505 3.93962 5.53235 4.18556 5.51557 4.63275C5.50611 4.87925 5.37917 4.97989 5.3569 5.00096L5.35355 5.00434C5.33127 5.02458 5.22142 5.13841 4.9587 5.14713C4.47964 5.16258 4.21601 4.62376 3.43213 4.6142C2.64794 4.60492 1.67029 5.44114 1.67029 5.44114L0 6.99999L1.67029 8.55886C1.67029 8.55886 2.64794 9.39508 3.43213 9.3858C4.21602 9.37624 4.47965 8.83742 4.95871 8.85315C5.2077 8.8613 5.31907 8.9667 5.34897 8.99623L5.3569 9.00438C5.38559 9.03304 5.49543 9.13788 5.50398 9.36725C5.52076 9.81443 4.94345 10.0604 4.93338 10.7923C4.923 11.5242 5.81918 12.4366 5.81918 12.4366L7.48947 13.9955L7.49405 14L7.49924 13.9955L9.16923 12.4366C9.16923 12.4366 10.0654 11.5242 10.0553 10.7923C10.045 10.0604 9.46765 9.81444 9.48442 9.36725C9.49389 9.12075 9.62082 9.02011 9.6431 8.99904L9.64645 8.99566C9.66873 8.97542 9.77858 8.86159 10.0413 8.85315C10.5204 8.83742 10.784 9.37624 11.5679 9.3858C12.3521 9.39508 13.3297 8.55886 13.3297 8.55886L15 6.99999Z" fill="#2C5465"/>
</g>
</svg>
