<svg width="162" height="54" viewBox="0 0 162 54" fill="none" xmlns="http://www.w3.org/2000/svg">
<mask id="path-1-inside-1_5_8" fill="white">
<path fill-rule="evenodd" clip-rule="evenodd" d="M162 11.1214V42.7401C156.803 42.7401 152.589 46.9534 152.589 52.1507C152.589 52.7837 152.652 53.4021 152.771 54H9.229C9.34816 53.4021 9.41065 52.7837 9.41065 52.1507C9.41065 46.9534 5.19736 42.7401 0 42.7401L2.86102e-06 11.1214C5.19736 11.1214 9.41065 6.90812 9.41065 1.71077C9.41065 1.12655 9.35741 0.554764 9.25553 0H152.744C152.643 0.554764 152.589 1.12655 152.589 1.71077C152.589 6.90812 156.803 11.1214 162 11.1214Z"/>
</mask>
<path d="M162 42.7401V43.7401H163V42.7401H162ZM162 11.1214H163V10.1214H162V11.1214ZM152.771 54V55H153.99L153.752 53.8046L152.771 54ZM9.229 54L8.24829 53.8046L8.01008 55H9.229V54ZM0 42.7401H-1L-1 43.7401H0V42.7401ZM2.86102e-06 11.1214V10.1214H-0.999997L-0.999997 11.1214H2.86102e-06ZM9.25553 0V-1H8.05515L8.27198 0.180635L9.25553 0ZM152.744 0L153.728 0.18063L153.945 -1H152.744V0ZM163 42.7401V11.1214H161V42.7401H163ZM153.589 52.1507C153.589 47.5056 157.355 43.7401 162 43.7401V41.7401C156.25 41.7401 151.589 46.4011 151.589 52.1507H153.589ZM153.752 53.8046C153.645 53.2706 153.589 52.7177 153.589 52.1507H151.589C151.589 52.8496 151.658 53.5335 151.79 54.1954L153.752 53.8046ZM9.229 55H152.771V53H9.229V55ZM8.41065 52.1507C8.41065 52.7177 8.35468 53.2706 8.24829 53.8046L10.2097 54.1954C10.3416 53.5335 10.4106 52.8497 10.4106 52.1507H8.41065ZM0 43.7401C4.64507 43.7401 8.41065 47.5056 8.41065 52.1507H10.4106C10.4106 46.4011 5.74964 41.7401 0 41.7401V43.7401ZM-0.999997 11.1214L-1 42.7401H1L1 11.1214H-0.999997ZM8.41065 1.71077C8.41065 6.35584 4.64508 10.1214 2.86102e-06 10.1214V12.1214C5.74964 12.1214 10.4107 7.46041 10.4107 1.71077H8.41065ZM8.27198 0.180635C8.36297 0.676093 8.41065 1.18742 8.41065 1.71077H10.4107C10.4107 1.06568 10.3519 0.433435 10.2391 -0.180635L8.27198 0.180635ZM152.744 -1H9.25553V1H152.744V-1ZM153.589 1.71077C153.589 1.18742 153.637 0.676093 153.728 0.18063L151.761 -0.18063C151.648 0.433435 151.589 1.06567 151.589 1.71077H153.589ZM162 10.1214C157.355 10.1214 153.589 6.35584 153.589 1.71077H151.589C151.589 7.46041 156.25 12.1214 162 12.1214V10.1214Z" fill="white" mask="url(#path-1-inside-1_5_8)"/>
</svg>
