<svg width="323" height="62" viewBox="0 0 323 62" fill="none" xmlns="http://www.w3.org/2000/svg">
<g clip-path="url(#clip0_69_188)">
<mask id="mask0_69_188" style="mask-type:luminance" maskUnits="userSpaceOnUse" x="0" y="17" width="252" height="27">
<path d="M251.06 17.8501H0V43.5001H251.06V17.8501Z" fill="white"/>
</mask>
<g mask="url(#mask0_69_188)">
<path d="M22.12 22.6403H22.08L22.66 21.3403C22.94 20.6203 23.1 20.1203 23.13 19.8503C23.16 19.5803 23.17 19.3903 23.17 19.2903C23.17 19.0503 23.14 18.8603 23.09 18.7103C23.01 18.4903 22.87 18.3503 22.67 18.2803H26.18C25.92 18.3503 25.65 18.5003 25.37 18.7103C25.14 18.9003 24.87 19.2003 24.58 19.6103C24.28 20.0203 23.98 20.5803 23.67 21.3003L15.48 41.0103C15.33 41.4903 15.25 41.8903 15.25 42.2003C15.25 42.2503 15.25 42.3703 15.27 42.5603C15.28 42.7503 15.35 42.9303 15.48 43.1003C15.61 43.2903 15.79 43.4203 16.02 43.4903H10.35C10.53 43.4403 10.66 43.3103 10.74 43.1003C10.79 42.9503 10.82 42.7603 10.82 42.5203C10.82 42.4203 10.82 42.2603 10.8 42.0303C10.79 41.8003 10.65 41.3803 10.4 40.7503L2.09001 20.5903C1.86001 20.0803 1.62001 19.6803 1.38001 19.3803C1.14001 19.0803 0.91001 18.8503 0.70001 18.6803C0.44001 18.4903 0.21001 18.3603 0.0100098 18.2803H5.69001C5.51001 18.3503 5.38001 18.5003 5.30001 18.7103C5.27001 18.8303 5.26001 19.0003 5.26001 19.2103C5.26001 19.3103 5.26001 19.4703 5.28001 19.7103C5.29001 19.9503 5.43001 20.3803 5.69001 21.0103L14.22 41.7603" fill="black"/>
<path d="M54.77 40.6199C54.77 41.2399 54.83 41.7399 54.94 42.1199C55.06 42.4899 55.19 42.7699 55.35 42.9699C55.5 43.1899 55.68 43.3199 55.89 43.3699H50.22C50.42 43.3199 50.62 43.1899 50.8 42.9699C50.93 42.7799 51.05 42.5099 51.17 42.1599C51.29 41.8099 51.34 41.3199 51.34 40.6999V20.8199C51.34 20.1999 51.28 19.7099 51.17 19.3599C51.05 19.0099 50.93 18.7399 50.8 18.5499C50.62 18.3299 50.43 18.1999 50.22 18.1499H55.89C55.69 18.1999 55.5 18.3299 55.35 18.5499C55.2 18.7399 55.06 19.0199 54.94 19.3799C54.83 19.7399 54.77 20.2399 54.77 20.8899V40.6299V40.6199Z" fill="black"/>
<path d="M107.15 40.6201C107.15 41.2401 107.21 41.7401 107.32 42.1201C107.44 42.4901 107.57 42.7701 107.73 42.9701C107.89 43.1901 108.06 43.3201 108.27 43.3701H102.86C103.02 43.3201 103.16 43.1901 103.28 42.9701C103.41 42.7801 103.51 42.5101 103.59 42.1801C103.67 41.8401 103.71 41.3601 103.71 40.7401V19.0201C102.91 19.0701 101.99 19.2701 100.95 19.6301C99.9104 19.9901 98.9204 20.5401 97.9704 21.2801C97.0304 22.0301 96.2404 22.9801 95.6004 24.1501C94.9604 25.3101 94.6404 26.7201 94.6404 28.3801V31.1901H93.5604V28.4201C93.5604 26.7601 93.2304 25.3701 92.5604 24.2201C91.8904 23.0801 91.0804 22.1401 90.1304 21.4101C89.1804 20.6801 88.1804 20.1301 87.1404 19.7701C86.1004 19.4101 85.2204 19.2001 84.5004 19.1601V40.7401C84.5004 41.3601 84.5504 41.8501 84.6404 42.1801C84.7304 42.5201 84.8204 42.7801 84.9304 42.9701C85.0604 43.1901 85.2004 43.3201 85.3504 43.3701H79.9504C80.1504 43.3201 80.3504 43.1901 80.5304 42.9701C80.6604 42.7801 80.7804 42.5001 80.9004 42.1201C81.0204 41.7501 81.0704 41.2501 81.0704 40.6201V20.8801C81.0704 20.2301 81.0104 19.7301 80.9004 19.3701C80.7904 19.0101 80.6604 18.7301 80.5304 18.5401C80.3504 18.3201 80.1504 18.1901 79.9504 18.1401H83.9304C84.6804 18.1401 85.5404 18.2601 86.5404 18.5001C87.5304 18.7401 88.5204 19.1401 89.5104 19.7101C90.5004 20.2701 91.4104 21.0101 92.2504 21.9101C93.0804 22.8101 93.7104 23.9201 94.1204 25.2401C94.5304 23.8901 95.1504 22.7701 95.9704 21.8701C96.7904 20.9701 97.6904 20.2401 98.6504 19.6901C99.6204 19.1401 100.6 18.7401 101.6 18.5001C102.6 18.2601 103.5 18.1401 104.3 18.1401H108.28C108.07 18.1901 107.89 18.3201 107.74 18.5401C107.59 18.7301 107.45 19.0101 107.33 19.3701C107.22 19.7301 107.16 20.2301 107.16 20.8801V40.6201H107.15Z" fill="black"/>
<path d="M135.97 30.5301C135.97 32.1401 136.16 33.6601 136.53 35.0901C136.9 36.5201 137.46 37.7601 138.19 38.8201C138.92 39.8801 139.84 40.7101 140.95 41.3201C142.05 41.9301 143.34 42.2401 144.81 42.2401C146.28 42.2401 147.56 41.9301 148.67 41.3201C149.78 40.7101 150.7 39.8701 151.43 38.8201C152.16 37.7601 152.71 36.5201 153.07 35.0901C153.43 33.6601 153.61 32.1401 153.61 30.5301C153.61 28.9201 153.43 27.3701 153.07 25.9601C152.71 24.5401 152.16 23.3101 151.43 22.2501C150.7 21.1901 149.78 20.3601 148.67 19.7501C147.56 19.1401 146.27 18.8301 144.81 18.8301C143.35 18.8301 142.05 19.1401 140.95 19.7501C139.84 20.3601 138.92 21.2001 138.19 22.2501C137.46 23.3101 136.9 24.5401 136.53 25.9601C136.16 27.3801 135.97 28.9001 135.97 30.5301ZM144.81 17.8501C146.53 17.8501 148.15 18.1901 149.66 18.8601C151.16 19.5301 152.48 20.4401 153.62 21.6001C154.75 22.7501 155.65 24.1001 156.3 25.6401C156.96 27.1801 157.28 28.8101 157.28 30.5401C157.28 32.2701 156.95 33.9001 156.3 35.4401C155.64 36.9801 154.75 38.3201 153.62 39.4701C152.49 40.6201 151.17 41.5401 149.66 42.2101C148.15 42.8801 146.54 43.2201 144.81 43.2201C143.08 43.2201 141.46 42.8801 139.95 42.2101C138.43 41.5401 137.1 40.6301 135.97 39.4701C134.84 38.3201 133.94 36.9701 133.29 35.4401C132.63 33.9001 132.3 32.2701 132.3 30.5401C132.3 28.8101 132.63 27.1801 133.29 25.6401C133.95 24.1001 134.84 22.7601 135.97 21.6001C137.1 20.4501 138.43 19.5301 139.95 18.8601C141.47 18.1901 143.09 17.8501 144.81 17.8501Z" fill="black"/>
<path d="M185.84 18.97V36.19C186.66 34.46 187.8 33.15 189.26 32.24C190.71 31.34 192.54 30.82 194.72 30.67C195.49 30.62 196.16 30.44 196.73 30.11C197.3 29.78 197.77 29.36 198.16 28.83C198.55 28.3 198.84 27.69 199.03 26.99C199.22 26.29 199.32 25.55 199.32 24.76C199.32 23.17 198.93 21.84 198.14 20.74C197.35 19.65 196.19 19.05 194.65 18.96H185.85L185.84 18.97ZM198.54 43.21C198.77 43.16 198.98 43.04 199.16 42.85C199.32 42.66 199.43 42.43 199.51 42.16C199.59 41.9 199.62 41.62 199.62 41.33C199.62 41.11 199.61 40.87 199.58 40.61C199.27 38.62 198.59 36.92 197.55 35.51C196.51 34.11 195.17 33.13 193.55 32.57C193.42 32.52 193.31 32.49 193.22 32.46C193.13 32.44 193.02 32.41 192.89 32.39C192.61 32.34 192.34 32.32 192.08 32.32C191.82 32.32 191.54 32.36 191.23 32.43C190.92 32.5 190.63 32.61 190.34 32.75C189.57 33.16 188.91 33.65 188.37 34.21C187.83 34.77 187.38 35.36 187.02 35.97C186.66 36.58 186.38 37.19 186.19 37.81C186 38.43 185.87 38.98 185.82 39.49V40.46C185.82 41.08 185.87 41.58 185.97 41.96C186.07 42.33 186.19 42.61 186.32 42.81C186.47 43.03 186.64 43.16 186.82 43.21H181.3C181.51 43.16 181.7 43.03 181.88 42.81C182.01 42.62 182.13 42.34 182.25 41.96C182.37 41.59 182.42 41.09 182.42 40.46V20.72C182.42 20.07 182.36 19.57 182.25 19.21C182.13 18.85 182.01 18.57 181.88 18.38C181.7 18.16 181.51 18.03 181.3 17.98H195.97C196.9 17.98 197.77 18.15 198.59 18.5C199.41 18.85 200.13 19.33 200.75 19.94C201.37 20.55 201.86 21.27 202.22 22.1C202.58 22.93 202.76 23.81 202.76 24.75C202.76 25.69 202.58 26.56 202.22 27.38C201.86 28.2 201.38 28.91 200.77 29.52C200.17 30.13 199.45 30.62 198.63 30.98C197.8 31.34 196.93 31.52 196 31.52C195.61 31.52 195.23 31.52 194.84 31.54C194.45 31.55 194.05 31.58 193.64 31.63C194.77 31.87 195.83 32.27 196.81 32.82C197.79 33.37 198.66 34.04 199.43 34.84C200.2 35.63 200.86 36.52 201.42 37.51C201.97 38.5 202.37 39.55 202.6 40.68C202.75 41.26 202.93 41.71 203.12 42.05C203.31 42.39 203.5 42.64 203.68 42.81C203.89 43.03 204.09 43.16 204.3 43.21H198.51H198.54Z" fill="black"/>
<path d="M246.5 35.07L246.62 19C244.84 19.14 242.98 19.55 241.02 20.21C239.06 20.87 237.2 21.81 235.42 23.04C233.64 24.26 232.07 25.8 230.69 27.63C229.31 29.47 228.33 31.66 227.73 34.2C227.96 33.86 228.2 33.52 228.45 33.16C228.69 32.8 228.98 32.48 229.32 32.19C230.32 31.33 231.47 30.66 232.76 30.19C234.05 29.72 235.4 29.49 236.82 29.49C237.82 29.49 238.81 29.62 239.79 29.87C240.77 30.12 241.69 30.5 242.55 30.99C243.41 31.48 244.19 32.07 244.87 32.75C245.55 33.44 246.1 34.21 246.51 35.07M249.95 40.47C249.95 41.09 250.01 41.59 250.12 41.97C250.24 42.34 250.37 42.62 250.52 42.82C250.68 43.04 250.86 43.17 251.06 43.22H245.65C245.81 43.15 245.95 42.99 246.08 42.75C246.21 42.56 246.31 42.29 246.39 41.96C246.47 41.62 246.51 41.17 246.51 40.59V38.97C246.51 37.75 246.24 36.62 245.7 35.58C245.16 34.55 244.45 33.65 243.56 32.9C242.67 32.14 241.64 31.55 240.47 31.11C239.3 30.68 238.08 30.46 236.82 30.46C235.56 30.46 234.45 30.65 233.33 31.04C232.21 31.43 231.21 31.97 230.32 32.66C229.43 33.36 228.7 34.19 228.14 35.17C227.57 36.14 227.25 37.2 227.18 38.36V40.49C227.18 41.09 227.22 41.57 227.3 41.93C227.38 42.29 227.48 42.57 227.61 42.76C227.71 42.98 227.84 43.13 227.99 43.23H225.02C225.22 43.18 225.42 43.05 225.6 42.83C225.73 42.64 225.85 42.36 225.97 41.98C226.09 41.61 226.14 41.11 226.14 40.48L226.18 39.61V38.31C226.28 35.84 226.7 33.62 227.44 31.66C228.17 29.7 229.13 27.98 230.3 26.47C231.47 24.97 232.8 23.68 234.3 22.61C235.79 21.54 237.34 20.67 238.95 19.98C240.56 19.29 242.17 18.79 243.78 18.47C245.39 18.15 246.89 17.98 248.28 17.98H251.1C250.89 18.03 250.71 18.16 250.56 18.38C250.41 18.57 250.27 18.85 250.16 19.21C250.05 19.57 249.99 20.07 249.99 20.72V40.46L249.95 40.47Z" fill="black"/>
</g>
<mask id="mask1_69_188" style="mask-type:luminance" maskUnits="userSpaceOnUse" x="151" y="49" width="100" height="13">
<path d="M250.05 49.1602H151.66V61.5902H250.05V49.1602Z" fill="white"/>
</mask>
<g mask="url(#mask1_69_188)">
<path d="M167.82 55.8001C165.48 57.3801 163.06 58.8701 160.39 59.8601C158.29 60.6901 155.71 61.4301 153.53 60.3601C151.51 59.3601 151.19 56.7101 152.24 54.8901C153.13 53.2301 155.87 51.5701 157.49 53.3201C157.89 53.7401 157.17 54.4801 156.76 53.9801C156.03 53.1501 154.66 53.7301 153.94 54.3101C153.29 54.8101 152.81 55.6401 152.65 56.4701C152.41 57.5501 152.73 58.7101 153.62 59.3701C154.34 59.8701 155.31 59.9501 156.2 59.9501C158.14 59.8701 160.16 59.0401 161.93 58.2101C163.79 57.2201 165.65 56.1401 167.34 54.9801C167.91 54.6501 168.39 55.4801 167.83 55.8101" fill="black"/>
<path d="M187.83 56.0405C185.97 57.3705 184.2 58.7805 182.26 60.0205C180.73 60.9305 178.63 62.0905 176.77 61.3505C174.91 60.5205 174.83 58.7805 175.32 57.0405C174.03 58.2805 172.57 59.2805 170.72 59.6905C169.19 60.0205 167.73 59.3605 167.17 57.7805C166.6 55.9605 167.57 54.1305 168.46 52.5605C168.78 52.0605 169.59 52.5605 169.27 53.0605C168.55 54.3905 167.57 55.9605 168.14 57.5405C168.79 59.3605 170.64 58.8705 172.01 58.2005C174.59 57.0405 176.29 54.7205 177.74 52.4005C178.06 51.9005 178.87 52.4005 178.55 52.9005C177.66 54.3105 176.69 55.8805 176.21 57.5405C175.64 59.0305 176.45 60.6105 178.15 60.6105C179.93 60.5305 181.62 59.2905 182.99 58.2905C184.52 57.3005 185.9 56.2205 187.35 55.1405C187.84 54.8105 188.32 55.6405 187.84 56.0505" fill="black"/>
<path d="M202.92 55.8001C200.58 57.3801 198.16 58.8701 195.49 59.8601C193.39 60.6901 190.81 61.4301 188.63 60.3601C186.61 59.3601 186.29 56.7101 187.34 54.8901C188.23 53.2301 190.97 51.5701 192.59 53.3201C192.99 53.7401 192.27 54.4801 191.86 53.9801C191.13 53.1501 189.76 53.7301 189.04 54.3101C188.39 54.8101 187.91 55.6401 187.75 56.4701C187.51 57.5501 187.83 58.7101 188.72 59.3701C189.44 59.8701 190.41 59.9501 191.3 59.9501C193.24 59.8701 195.26 59.0401 197.03 58.2101C198.89 57.2201 200.74 56.1401 202.44 54.9801C203.01 54.6501 203.49 55.4801 202.93 55.8101" fill="black"/>
<path d="M205.181 50.5703C205.021 50.4003 205.101 50.0703 205.341 49.9103C205.661 49.7503 205.981 49.5003 206.311 49.2503C206.551 49.0803 206.871 49.1703 206.961 49.4103C207.121 49.6603 207.041 49.9103 206.801 50.0703C206.481 50.3203 206.161 50.5703 205.831 50.8203C205.591 50.9003 205.261 50.8203 205.181 50.5703ZM214.951 55.4603C213.341 56.7903 211.481 57.9503 209.701 59.0303C207.921 60.0203 205.661 60.8503 203.651 60.6903C202.041 60.5203 200.821 59.3603 201.151 57.6203C201.311 56.7103 201.881 55.8803 202.361 55.1303C202.931 54.1403 203.651 53.2203 204.381 52.3103C204.781 51.8103 205.511 52.5603 205.111 52.9703C204.461 53.7203 203.821 54.5503 203.331 55.3803C202.851 56.0403 202.361 56.7903 202.121 57.6203C201.551 59.6103 203.811 59.8603 205.271 59.6103C206.971 59.2803 208.581 58.5303 210.031 57.6203C211.481 56.7903 212.941 55.8803 214.311 54.8003C214.711 54.3803 215.441 55.0503 214.951 55.4603Z" fill="black"/>
<path d="M234.64 55.7102C233.19 56.8702 231.57 58.0302 229.96 58.9502C228.34 59.8602 226.17 60.6902 224.31 59.8602C222.61 59.1102 221.89 57.1202 221.16 55.4602C220.84 54.8002 220.44 53.8902 219.63 53.6402C218.58 53.2202 217.37 53.8102 216.64 54.5502C214.78 56.2902 213.65 58.9502 212.44 61.2702C212.12 61.7702 211.39 61.2702 211.63 60.7702C212.84 58.0302 214.05 55.3002 215.35 52.6402C215.59 52.0602 216.4 52.5602 216.16 53.1402C216 53.3902 215.84 53.7202 215.76 54.0502C215.92 53.8802 216.08 53.7202 216.25 53.5502C217.62 52.4702 219.72 51.9802 221.01 53.3902C222.14 54.6302 222.46 56.4602 223.43 57.8702C224.88 60.1102 227.79 59.1102 229.64 58.0402C231.18 57.1302 232.63 56.1302 233.92 55.0502C234.4 54.6302 235.05 55.3002 234.65 55.7102" fill="black"/>
<path d="M250.05 55.7103C247.63 57.5403 245.21 59.3603 242.3 60.1903C240.2 60.8503 237.38 61.1903 235.36 60.2703C233.5 59.3603 233.1 57.1203 233.91 55.3803C233.91 55.3003 233.99 55.2103 233.99 55.1303C234.47 54.1403 235.36 53.2203 236.25 52.5603C236.81 52.1403 237.94 51.9003 238.43 52.7203C238.83 53.4603 238.03 54.3803 237.46 54.7903C236.65 55.3703 235.69 55.7003 234.64 55.9503C234.48 56.5303 234.4 57.1903 234.48 57.7703C234.8 58.9303 235.77 59.5103 236.82 59.6803C239.16 60.1003 241.58 59.5203 243.76 58.6003C245.86 57.6903 247.71 56.2003 249.65 54.8703" fill="black"/>
<path d="M235.44 54.6302C235.387 54.6835 235.36 54.7402 235.36 54.8002C236.09 54.5502 236.73 54.3002 237.22 53.7202C237.3 53.5502 237.62 53.3002 237.46 53.1402C237.38 52.8902 236.57 53.5502 236.49 53.6402C236.09 53.9702 235.76 54.3002 235.44 54.6302Z" fill="black"/>
</g>
<path d="M322.86 30.69L316.03 23.86C316.03 23.86 312.03 20.19 308.82 20.23C305.61 20.27 304.53 22.63 302.57 22.57C301.55 22.53 301.1 22.07 300.97 21.94L300.94 21.9C300.82 21.77 300.37 21.31 300.34 20.31C300.27 18.35 302.63 17.27 302.68 14.06C302.72 10.85 299.05 6.85 299.05 6.85L292.21 0.02L292.19 0L292.17 0.02L285.34 6.85C285.34 6.85 281.67 10.85 281.71 14.06C281.75 17.27 284.11 18.35 284.05 20.31C284.01 21.39 283.49 21.83 283.4 21.92H283.39C283.3 22.02 282.85 22.52 281.77 22.56C279.81 22.63 278.73 20.27 275.52 20.22C272.31 20.18 268.31 23.85 268.31 23.85L261.48 30.68L268.31 37.51C268.31 37.51 272.31 41.18 275.52 41.14C278.73 41.1 279.81 38.74 281.77 38.8C282.79 38.84 283.24 39.3 283.37 39.43L283.4 39.46C283.52 39.59 283.97 40.05 284 41.05C284.07 43.01 281.71 44.09 281.66 47.3C281.62 50.51 285.29 54.51 285.29 54.51L292.12 61.34L292.14 61.36L292.16 61.34L298.99 54.51C298.99 54.51 302.66 50.51 302.62 47.3C302.58 44.09 300.22 43.01 300.28 41.05C300.32 39.97 300.84 39.53 300.93 39.44H300.94C301.03 39.34 301.48 38.84 302.56 38.8C304.52 38.73 305.6 41.09 308.81 41.14C312.02 41.18 316.02 37.51 316.02 37.51L322.85 30.68L322.86 30.69ZM291.26 38.04V52.41C291.26 54.6 291.26 55.27 290.22 55.67C290.22 55.67 289.37 56 288.71 55.31C288.05 54.62 283.82 48.99 283.82 48.99C283.82 48.99 283.23 48.32 283.05 47.42C283.05 47.42 282.18 45.24 284.33 42.6C286.43 40.01 288.7 37.61 287.27 35.74L287.22 35.69C285.35 34.18 282.95 36.53 280.36 38.63C277.72 40.77 275.54 39.91 275.54 39.91C274.64 39.72 273.97 39.14 273.97 39.14C273.97 39.14 268.33 34.9 267.65 34.25C266.96 33.59 267.29 32.74 267.29 32.74C267.69 31.7 268.36 31.7 270.55 31.7H284.92C284.92 31.7 287.34 31.52 289.49 33.48H289.5C291.45 35.65 291.27 38.07 291.27 38.07M289.52 27.94L289.47 28C287.32 29.95 284.91 29.78 284.91 29.78H270.54C268.35 29.78 267.68 29.78 267.28 28.74C267.28 28.74 266.95 27.89 267.64 27.23C268.33 26.57 273.96 22.34 273.96 22.34C273.96 22.34 274.63 21.75 275.53 21.57C276.12 21.45 276.94 21.31 278.87 23.02C279.69 23.9 280.64 24.39 281.84 24.41C281.84 24.41 281.88 24.41 281.9 24.41C284.11 24.41 285.91 22.62 285.91 20.4C285.91 20.37 285.91 20.34 285.91 20.31C285.89 19.11 285.4 18.16 284.52 17.34C282.82 15.41 282.95 14.59 283.07 14C283.25 13.1 283.84 12.43 283.84 12.43C283.84 12.43 288.08 6.79 288.73 6.11C289.39 5.42 290.24 5.75 290.24 5.75C291.28 6.15 291.28 6.82 291.28 9.01V23.38C291.28 23.38 291.46 25.8 289.5 27.95M293.05 23.38V9.01C293.05 6.82 293.05 6.15 294.09 5.75C294.09 5.75 294.94 5.42 295.6 6.11C296.26 6.8 300.49 12.43 300.49 12.43C300.49 12.43 301.08 13.1 301.26 14C301.26 14 302.13 16.18 299.98 18.82C297.88 21.41 295.61 23.81 297.04 25.68L297.09 25.73C298.96 27.24 301.36 24.89 303.95 22.79C306.59 20.65 308.77 21.51 308.77 21.51C309.67 21.69 310.34 22.28 310.34 22.28C310.34 22.28 315.98 26.52 316.66 27.17C317.35 27.83 317.02 28.68 317.02 28.68C316.62 29.72 315.95 29.72 313.76 29.72H299.39C299.39 29.72 296.97 29.9 294.82 27.94H294.81C292.86 25.77 293.03 23.35 293.03 23.35M316.69 34.19C316 34.85 310.36 39.08 310.36 39.08C310.36 39.08 309.69 39.67 308.79 39.85C308.2 39.97 307.38 40.11 305.45 38.4C304.63 37.52 303.68 37.03 302.48 37.01C302.48 37.01 302.44 37.01 302.42 37.01C300.21 37.01 298.41 38.8 298.41 41.02C298.41 41.05 298.41 41.08 298.41 41.11C298.43 42.31 298.92 43.27 299.8 44.08C301.5 46.01 301.37 46.83 301.25 47.42C301.07 48.32 300.48 48.99 300.48 48.99C300.48 48.99 296.24 54.63 295.59 55.31C294.93 56 294.08 55.67 294.08 55.67C293.04 55.27 293.04 54.6 293.04 52.41V38.04C293.04 38.04 292.86 35.62 294.82 33.47L294.87 33.41C297.02 31.46 299.43 31.63 299.43 31.63H313.8C315.99 31.63 316.66 31.63 317.06 32.67C317.06 32.67 317.39 33.52 316.7 34.18" fill="black"/>
<path d="M286.83 23.6699C285.92 23.6699 285.18 24.4099 285.18 25.3199C285.18 26.2299 285.92 26.9699 286.83 26.9699C287.74 26.9699 288.48 26.2299 288.48 25.3199C288.48 24.4099 287.74 23.6699 286.83 23.6699Z" fill="black"/>
<path d="M297.5 34.3999C296.59 34.3999 295.85 35.1399 295.85 36.0499C295.85 36.9599 296.59 37.6999 297.5 37.6999C298.41 37.6999 299.15 36.9599 299.15 36.0499C299.15 35.1399 298.41 34.3999 297.5 34.3999Z" fill="black"/>
</g>
<defs>
<clipPath id="clip0_69_188">
<rect width="322.86" height="61.59" fill="white"/>
</clipPath>
</defs>
</svg>
