<svg width="375" height="72" viewBox="0 0 375 72" fill="none" xmlns="http://www.w3.org/2000/svg">
<g clip-path="url(#clip0_81_18)">
<mask id="mask0_81_18" style="mask-type:luminance" maskUnits="userSpaceOnUse" x="0" y="20" width="292" height="31">
<path d="M291.605 20.8669H0V50.8523H291.605V20.8669Z" fill="white"/>
</mask>
<g mask="url(#mask0_81_18)">
<path d="M25.6924 26.4666H25.6459L26.3196 24.9468C26.6448 24.1051 26.8306 23.5206 26.8655 23.205C26.9003 22.8894 26.9119 22.6672 26.9119 22.5503C26.9119 22.2698 26.8771 22.0477 26.819 21.8723C26.7261 21.6151 26.5635 21.4515 26.3312 21.3696H30.408C30.106 21.4515 29.7924 21.6268 29.4672 21.8723C29.2001 22.0944 28.8865 22.4451 28.5496 22.9244C28.2012 23.4037 27.8527 24.0584 27.4927 24.9001L17.98 47.9415C17.8058 48.5026 17.7129 48.9702 17.7129 49.3326C17.7129 49.3911 17.7129 49.5313 17.7361 49.7535C17.7477 49.9756 17.829 50.186 17.98 50.3847C18.131 50.6068 18.3401 50.7588 18.6072 50.8407H12.0216C12.2306 50.7822 12.3816 50.6302 12.4746 50.3847C12.5326 50.2094 12.5675 49.9873 12.5675 49.7067C12.5675 49.5898 12.5675 49.4028 12.5442 49.1339C12.5326 48.865 12.37 48.374 12.0796 47.6375L2.42763 24.0701C2.16048 23.4739 1.88172 23.0063 1.60297 22.6556C1.32421 22.3048 1.05706 22.036 0.81315 21.8372C0.511161 21.6151 0.244018 21.4632 0.0117188 21.3696H6.60901C6.39994 21.4515 6.24894 21.6268 6.15602 21.8723C6.12118 22.0126 6.10956 22.2113 6.10956 22.4568C6.10956 22.5737 6.10956 22.7608 6.13279 23.0413C6.14441 23.3219 6.30702 23.8246 6.60901 24.5611L16.5166 48.8182" fill="white"/>
<path d="M63.6151 47.4854C63.6151 48.2102 63.6848 48.7947 63.8126 49.239C63.952 49.6715 64.1029 49.9988 64.2888 50.2326C64.463 50.4898 64.6721 50.6418 64.916 50.7002H58.3303C58.5626 50.6418 58.7949 50.4898 59.004 50.2326C59.155 50.0105 59.2944 49.6949 59.4337 49.2857C59.5731 48.8766 59.6312 48.3037 59.6312 47.579V24.3388C59.6312 23.614 59.5615 23.0412 59.4337 22.632C59.2944 22.2229 59.155 21.9073 59.004 21.6851C58.7949 21.428 58.5742 21.276 58.3303 21.2175H64.916C64.6837 21.276 64.463 21.428 64.2888 21.6851C64.1146 21.9073 63.952 22.2346 63.8126 22.6554C63.6848 23.0763 63.6151 23.6608 63.6151 24.4206V47.4971V47.4854Z" fill="white"/>
<path d="M124.455 47.4856C124.455 48.2104 124.524 48.795 124.652 49.2392C124.792 49.6717 124.943 49.999 125.128 50.2328C125.314 50.49 125.512 50.642 125.756 50.7005H119.472C119.658 50.642 119.82 50.49 119.96 50.2328C120.111 50.0107 120.227 49.6951 120.32 49.3093C120.413 48.9119 120.459 48.3507 120.459 47.6259V22.2348C119.53 22.2932 118.461 22.527 117.253 22.9479C116.045 23.3687 114.896 24.0117 113.792 24.8768C112.7 25.7535 111.783 26.8641 111.039 28.2319C110.296 29.5879 109.924 31.2363 109.924 33.1768V36.4618H108.67V33.2236C108.67 31.283 108.287 29.6581 107.509 28.3137C106.73 26.981 105.789 25.8821 104.686 25.0288C103.583 24.1754 102.421 23.5324 101.213 23.1116C100.005 22.6907 98.9831 22.4452 98.1469 22.3985V47.6259C98.1469 48.3507 98.2049 48.9235 98.3095 49.3093C98.414 49.7068 98.5185 50.0107 98.6463 50.2328C98.7973 50.49 98.9599 50.642 99.1341 50.7005H92.8621C93.0944 50.642 93.3267 50.49 93.5357 50.2328C93.6867 50.0107 93.8261 49.6834 93.9655 49.2392C94.1049 48.8066 94.1629 48.2221 94.1629 47.4856V24.4092C94.1629 23.6493 94.0932 23.0648 93.9655 22.644C93.8377 22.2231 93.6867 21.8958 93.5357 21.6737C93.3267 21.4165 93.0944 21.2645 92.8621 21.2061H97.4848C98.3559 21.2061 99.3548 21.3463 100.516 21.6269C101.666 21.9075 102.816 22.3751 103.966 23.0414C105.116 23.6961 106.173 24.5611 107.148 25.6133C108.112 26.6654 108.844 27.963 109.32 29.5061C109.797 27.9279 110.517 26.6186 111.469 25.5665C112.422 24.5144 113.467 23.661 114.582 23.018C115.709 22.3751 116.847 21.9075 118.008 21.6269C119.17 21.3463 120.215 21.2061 121.144 21.2061H125.767C125.523 21.2645 125.314 21.4165 125.14 21.6737C124.966 21.8958 124.803 22.2231 124.664 22.644C124.536 23.0648 124.466 23.6493 124.466 24.4092V47.4856H124.455Z" fill="white"/>
<path d="M157.928 35.6901C157.928 37.5723 158.149 39.3492 158.579 41.0209C159.009 42.6926 159.659 44.1421 160.507 45.3813C161.355 46.6205 162.423 47.5908 163.713 48.3039C164.99 49.017 166.489 49.3794 168.196 49.3794C169.903 49.3794 171.39 49.017 172.679 48.3039C173.969 47.5908 175.037 46.6088 175.885 45.3813C176.733 44.1421 177.372 42.6926 177.79 41.0209C178.208 39.3492 178.417 37.5723 178.417 35.6901C178.417 33.808 178.208 31.996 177.79 30.3477C177.372 28.6877 176.733 27.2498 175.885 26.0106C175.037 24.7715 173.969 23.8012 172.679 23.0881C171.39 22.375 169.892 22.0126 168.196 22.0126C166.5 22.0126 164.99 22.375 163.713 23.0881C162.423 23.8012 161.355 24.7832 160.507 26.0106C159.659 27.2498 159.009 28.6877 158.579 30.3477C158.149 32.0077 157.928 33.7846 157.928 35.6901ZM168.196 20.8669C170.194 20.8669 172.075 21.2644 173.829 22.0477C175.572 22.8309 177.105 23.8947 178.429 25.2508C179.741 26.5951 180.787 28.1733 181.542 29.9736C182.308 31.7739 182.68 33.6794 182.68 35.7018C182.68 37.7242 182.297 39.6297 181.542 41.43C180.775 43.2303 179.741 44.7968 178.429 46.1412C177.116 47.4855 175.583 48.561 173.829 49.3443C172.075 50.1275 170.205 50.525 168.196 50.525C166.187 50.525 164.305 50.1275 162.551 49.3443C160.786 48.561 159.241 47.4972 157.928 46.1412C156.616 44.7968 155.571 43.2186 154.816 41.43C154.049 39.6297 153.666 37.7242 153.666 35.7018C153.666 33.6794 154.049 31.7739 154.816 29.9736C155.582 28.1733 156.616 26.6068 157.928 25.2508C159.241 23.9064 160.786 22.8309 162.551 22.0477C164.317 21.2644 166.198 20.8669 168.196 20.8669Z" fill="white"/>
<path d="M215.852 22.1761V42.3067C216.804 40.2843 218.129 38.7528 219.824 37.689C221.509 36.6369 223.634 36.029 226.166 35.8537C227.06 35.7952 227.839 35.5848 228.501 35.199C229.163 34.8132 229.709 34.3223 230.162 33.7027C230.615 33.0831 230.951 32.37 231.172 31.5517C231.393 30.7334 231.509 29.8683 231.509 28.9448C231.509 27.086 231.056 25.5312 230.138 24.2453C229.221 22.9711 227.873 22.2697 226.085 22.1644H215.864L215.852 22.1761ZM230.603 50.5132C230.87 50.4547 231.114 50.3145 231.323 50.0924C231.509 49.8702 231.637 49.6014 231.73 49.2857C231.823 48.9818 231.857 48.6545 231.857 48.3154C231.857 48.0583 231.846 47.7777 231.811 47.4737C231.451 45.1474 230.661 43.1601 229.453 41.5117C228.245 39.8751 226.689 38.7295 224.807 38.0748C224.656 38.0164 224.528 37.9813 224.424 37.9462C224.319 37.9228 224.192 37.8878 224.041 37.8644C223.715 37.8059 223.402 37.7826 223.1 37.7826C222.798 37.7826 222.473 37.8293 222.112 37.9112C221.752 37.993 221.416 38.1216 221.079 38.2852C220.184 38.7645 219.418 39.3374 218.791 39.992C218.163 40.6467 217.641 41.3364 217.223 42.0495C216.804 42.7626 216.479 43.4757 216.259 44.2005C216.038 44.9253 215.887 45.5682 215.829 46.1644V47.2984C215.829 48.0232 215.887 48.6077 216.003 49.0519C216.119 49.4845 216.259 49.8118 216.41 50.0456C216.584 50.3028 216.781 50.4547 216.99 50.5132H210.579C210.823 50.4547 211.043 50.3028 211.253 50.0456C211.404 49.8235 211.543 49.4962 211.682 49.0519C211.822 48.6194 211.88 48.0349 211.88 47.2984V24.2219C211.88 23.4621 211.81 22.8775 211.682 22.4567C211.543 22.0358 211.404 21.7085 211.253 21.4864C211.043 21.2292 210.823 21.0772 210.579 21.0188H227.618C228.698 21.0188 229.709 21.2175 230.661 21.6267C231.614 22.0358 232.45 22.597 233.17 23.3101C233.89 24.0232 234.459 24.8649 234.877 25.8352C235.295 26.8055 235.505 27.8342 235.505 28.9331C235.505 30.032 235.295 31.049 234.877 32.0076C234.459 32.9662 233.902 33.7962 233.193 34.5093C232.496 35.2224 231.66 35.7952 230.708 36.2161C229.744 36.6369 228.733 36.8473 227.653 36.8473C227.2 36.8473 226.758 36.8473 226.305 36.8707C225.852 36.8824 225.388 36.9175 224.912 36.9759C226.224 37.2565 227.455 37.7241 228.594 38.3671C229.732 39.01 230.742 39.7933 231.637 40.7285C232.531 41.652 233.298 42.6924 233.948 43.8498C234.587 45.0071 235.052 46.2346 235.319 47.5556C235.493 48.2336 235.702 48.7597 235.923 49.1571C236.143 49.5546 236.364 49.8469 236.573 50.0456C236.817 50.3028 237.049 50.4547 237.293 50.5132H230.568H230.603Z" fill="white"/>
<path d="M286.308 40.9976L286.447 22.2114C284.38 22.3751 282.22 22.8544 279.943 23.626C277.667 24.3975 275.506 25.4964 273.439 26.9343C271.371 28.3605 269.548 30.1608 267.945 32.3001C266.342 34.4511 265.204 37.0113 264.507 39.9806C264.774 39.5831 265.053 39.1856 265.343 38.7648C265.622 38.3439 265.959 37.9698 266.354 37.6308C267.515 36.6255 268.851 35.8422 270.349 35.2928C271.847 34.7433 273.415 34.4745 275.065 34.4745C276.226 34.4745 277.376 34.6264 278.514 34.9187C279.653 35.211 280.721 35.6552 281.72 36.228C282.719 36.8008 283.625 37.4905 284.415 38.2855C285.205 39.0921 285.843 39.9923 286.32 40.9976M290.315 47.3103C290.315 48.0351 290.385 48.6196 290.513 49.0639C290.652 49.4964 290.803 49.8237 290.977 50.0575C291.163 50.3147 291.372 50.4667 291.604 50.5251H285.321C285.507 50.4433 285.669 50.2563 285.82 49.9757C285.971 49.7536 286.087 49.4379 286.18 49.0522C286.273 48.6547 286.32 48.1286 286.32 47.4506V45.5568C286.32 44.1306 286.006 42.8096 285.379 41.5938C284.752 40.3897 283.927 39.3376 282.893 38.4608C281.859 37.5724 280.663 36.8827 279.304 36.3683C277.945 35.8656 276.528 35.6084 275.065 35.6084C273.601 35.6084 272.312 35.8305 271.011 36.2865C269.71 36.7424 268.549 37.3736 267.515 38.1803C266.481 38.9986 265.633 39.9689 264.983 41.1145C264.321 42.2485 263.949 43.4876 263.868 44.8437V47.3337C263.868 48.0351 263.914 48.5962 264.007 49.0171C264.1 49.4379 264.216 49.7653 264.367 49.9874C264.484 50.2446 264.635 50.4199 264.809 50.5368H261.359C261.591 50.4784 261.824 50.3264 262.033 50.0692C262.184 49.8471 262.323 49.5198 262.463 49.0755C262.602 48.643 262.66 48.0585 262.66 47.322L262.706 46.305V44.7852C262.823 41.8978 263.31 39.3025 264.17 37.0112C265.018 34.72 266.133 32.7093 267.492 30.944C268.851 29.1905 270.396 27.6825 272.138 26.4316C273.868 25.1808 275.669 24.1637 277.539 23.3571C279.409 22.5505 281.279 21.9659 283.149 21.5919C285.019 21.2178 286.761 21.019 288.375 21.019H291.651C291.407 21.0775 291.198 21.2295 291.024 21.4867C290.849 21.7088 290.687 22.0361 290.559 22.4569C290.431 22.8778 290.362 23.4623 290.362 24.2222V47.2986L290.315 47.3103Z" fill="white"/>
</g>
<mask id="mask1_81_18" style="mask-type:luminance" maskUnits="userSpaceOnUse" x="176" y="57" width="115" height="15">
<path d="M290.432 57.469H176.152V71.9999H290.432V57.469Z" fill="white"/>
</mask>
<g mask="url(#mask1_81_18)">
<path d="M194.922 65.2315C192.205 67.0785 189.394 68.8203 186.293 69.9777C183.853 70.948 180.857 71.813 178.325 70.5622C175.978 69.3932 175.607 66.2953 176.826 64.1676C177.86 62.2271 181.043 60.2865 182.924 62.3323C183.389 62.8233 182.552 63.6883 182.076 63.1038C181.228 62.1335 179.637 62.8116 178.801 63.4896C178.046 64.0741 177.488 65.0444 177.303 66.0147C177.024 67.2772 177.395 68.6333 178.429 69.4049C179.265 69.9894 180.392 70.0829 181.426 70.0829C183.679 69.9894 186.025 69.0191 188.081 68.0488C190.242 66.8915 192.402 65.6289 194.365 64.2729C195.027 63.8871 195.584 64.8574 194.934 65.2431" fill="white"/>
<path d="M218.164 65.512C216.003 67.0668 213.948 68.7151 211.694 70.1647C209.917 71.2285 207.478 72.5846 205.318 71.7195C203.157 70.7492 203.064 68.7151 203.634 66.681C202.135 68.1306 200.439 69.2996 198.291 69.7789C196.514 70.1647 194.818 69.3931 194.167 67.5461C193.505 65.4185 194.632 63.2792 195.666 61.4438C196.037 60.8593 196.978 61.4438 196.607 62.0283C195.77 63.5831 194.632 65.4185 195.294 67.2655C196.049 69.3931 198.198 68.8203 199.789 68.0371C202.786 66.681 204.76 63.9689 206.444 61.2568C206.816 60.6723 207.757 61.2568 207.385 61.8413C206.351 63.4896 205.225 65.325 204.667 67.2655C204.005 69.0074 204.946 70.8544 206.921 70.8544C208.988 70.7609 210.951 69.3113 212.542 68.1423C214.319 66.985 215.922 65.7224 217.606 64.4599C218.175 64.0741 218.733 65.0444 218.175 65.5237" fill="white"/>
<path d="M235.69 65.2312C232.972 67.0783 230.162 68.8201 227.06 69.9774C224.621 70.9477 221.625 71.8128 219.092 70.5619C216.746 69.3929 216.375 66.295 217.594 64.1674C218.628 62.2268 221.81 60.2863 223.692 62.332C224.157 62.823 223.32 63.6881 222.844 63.1036C221.996 62.1333 220.405 62.8113 219.569 63.4894C218.814 64.0739 218.256 65.0442 218.07 66.0145C217.792 67.277 218.163 68.6331 219.197 69.4046C220.033 69.9891 221.16 70.0826 222.194 70.0826C224.447 69.9891 226.793 69.0188 228.849 68.0486C231.009 66.8912 233.158 65.6287 235.133 64.2726C235.795 63.8868 236.352 64.8571 235.702 65.2429" fill="white"/>
<path d="M238.316 59.1173C238.13 58.9185 238.223 58.5328 238.502 58.3457C238.874 58.1587 239.245 57.8664 239.629 57.5742C239.908 57.3754 240.279 57.4807 240.384 57.7612C240.57 58.0535 240.477 58.3457 240.198 58.5328C239.826 58.825 239.455 59.1173 239.071 59.4095C238.792 59.5031 238.409 59.4095 238.316 59.1173ZM249.664 64.8338C247.794 66.3886 245.634 67.7447 243.566 69.0072C241.499 70.1645 238.874 71.1348 236.539 70.9478C234.669 70.749 233.252 69.393 233.635 67.3589C233.821 66.2951 234.483 65.3248 235.041 64.448C235.703 63.2907 236.539 62.2152 237.387 61.1514C237.852 60.5669 238.7 61.4436 238.235 61.9229C237.48 62.7997 236.737 63.77 236.168 64.7403C235.61 65.5118 235.041 66.3886 234.762 67.3589C234.1 69.6852 236.725 69.9775 238.421 69.6852C240.395 69.2995 242.265 68.4227 243.95 67.3589C245.634 66.3886 247.329 65.3248 248.921 64.0622C249.385 63.5712 250.233 64.3545 249.664 64.8338Z" fill="white"/>
<path d="M272.533 65.1262C270.849 66.4823 268.968 67.8383 267.098 68.9138C265.216 69.9776 262.696 70.9479 260.535 69.9776C258.561 69.1009 257.724 66.7745 256.876 64.8339C256.505 64.0624 256.04 62.9986 255.099 62.7063C253.88 62.2153 252.474 62.905 251.627 63.7701C249.466 65.8042 248.154 68.9138 246.748 71.6259C246.377 72.2105 245.529 71.6259 245.807 71.0414C247.213 67.8383 248.618 64.6469 250.128 61.5373C250.407 60.8593 251.348 61.4438 251.069 62.1218C250.883 62.4141 250.697 62.7998 250.604 63.1856C250.79 62.9869 250.976 62.7998 251.174 62.6011C252.765 61.3386 255.204 60.7657 256.702 62.4141C258.015 63.8636 258.386 66.003 259.513 67.6513C261.197 70.2699 264.577 69.1009 266.726 67.85C268.515 66.7862 270.199 65.6172 271.697 64.3546C272.255 63.8636 273.01 64.6469 272.545 65.1262" fill="white"/>
<path d="M290.432 65.1262C287.621 67.2655 284.81 69.3931 281.43 70.3634C278.991 71.135 275.716 71.5324 273.37 70.4569C271.209 69.3931 270.745 66.7745 271.685 64.7404C271.685 64.6469 271.778 64.5417 271.778 64.4482C272.336 63.2909 273.37 62.2154 274.403 61.4438C275.054 60.9528 276.366 60.6722 276.935 61.6308C277.4 62.4959 276.471 63.5714 275.809 64.0507C274.868 64.7287 273.753 65.1145 272.533 65.4068C272.347 66.0848 272.255 66.8564 272.347 67.5344C272.719 68.8905 273.846 69.5685 275.065 69.7672C277.783 70.2582 280.594 69.5802 283.126 68.5047C285.565 67.4409 287.714 65.699 289.967 64.1442" fill="white"/>
<path d="M273.463 63.8637C273.401 63.926 273.37 63.9923 273.37 64.0624C274.218 63.7702 274.961 63.4779 275.53 62.7999C275.623 62.6011 275.995 62.3089 275.809 62.1218C275.716 61.8296 274.775 62.6011 274.682 62.7063C274.218 63.0921 273.834 63.4779 273.463 63.8637Z" fill="white"/>
</g>
<path d="M375 35.8773L367.068 27.8928C367.068 27.8928 362.422 23.6025 358.693 23.6493C354.965 23.6961 353.71 26.4549 351.434 26.3848C350.249 26.338 349.726 25.8003 349.575 25.6483L349.541 25.6016C349.401 25.4496 348.879 24.9118 348.844 23.7428C348.762 21.4515 351.503 20.189 351.562 16.4364C351.608 12.6839 347.345 8.00779 347.345 8.00779L339.401 0.0233804L339.377 0L339.354 0.0233804L331.421 8.00779C331.421 8.00779 327.159 12.6839 327.205 16.4364C327.251 20.189 329.993 21.4515 329.923 23.7428C329.876 25.0054 329.272 25.5197 329.168 25.6249H329.156C329.052 25.7418 328.529 26.3263 327.275 26.3731C324.998 26.4549 323.744 23.6961 320.015 23.6376C316.287 23.5908 311.641 27.8811 311.641 27.8811L303.708 35.8656L311.641 43.85C311.641 43.85 316.287 48.1403 320.015 48.0935C323.744 48.0468 324.998 45.2879 327.275 45.358C328.459 45.4048 328.982 45.9425 329.133 46.0945L329.168 46.1296C329.307 46.2815 329.83 46.8193 329.865 47.9883C329.946 50.2796 327.205 51.5421 327.147 55.2947C327.1 59.0472 331.363 63.7233 331.363 63.7233L339.296 71.7077L339.319 71.7311L339.343 71.7077L347.276 63.7233C347.276 63.7233 351.538 59.0472 351.492 55.2947C351.445 51.5421 348.704 50.2796 348.774 47.9883C348.82 46.7258 349.424 46.2114 349.529 46.1062H349.541C349.645 45.9893 350.168 45.4048 351.422 45.358C353.699 45.2762 354.953 48.0351 358.682 48.0935C362.41 48.1403 367.056 43.85 367.056 43.85L374.989 35.8656L375 35.8773ZM338.297 44.4696V61.2684C338.297 63.8285 338.297 64.6118 337.089 65.0794C337.089 65.0794 336.102 65.4652 335.335 64.6585C334.569 63.8519 329.656 57.2703 329.656 57.2703C329.656 57.2703 328.97 56.4871 328.761 55.435C328.761 55.435 327.751 52.8865 330.248 49.8003C332.687 46.7725 335.324 43.9669 333.663 41.7808L333.605 41.7224C331.433 39.9571 328.645 42.7043 325.637 45.1593C322.571 47.661 320.039 46.6556 320.039 46.6556C318.993 46.4335 318.215 45.7555 318.215 45.7555C318.215 45.7555 311.664 40.7988 310.874 40.039C310.073 39.2674 310.456 38.2737 310.456 38.2737C310.921 37.058 311.699 37.058 314.243 37.058H330.933C330.933 37.058 333.744 36.8475 336.241 39.1388H336.253C338.518 41.6756 338.309 44.5046 338.309 44.5046M336.276 32.6624L336.218 32.7326C333.721 35.0122 330.922 34.8134 330.922 34.8134H314.231C311.687 34.8134 310.909 34.8134 310.445 33.5977C310.445 33.5977 310.061 32.604 310.863 31.8324C311.664 31.0609 318.203 26.1159 318.203 26.1159C318.203 26.1159 318.982 25.4262 320.027 25.2158C320.712 25.0755 321.665 24.9118 323.906 26.9109C324.859 27.9396 325.962 28.5124 327.356 28.5358C327.356 28.5358 327.402 28.5358 327.426 28.5358C329.993 28.5358 332.083 26.4433 332.083 23.848C332.083 23.813 332.083 23.7779 332.083 23.7428C332.06 22.34 331.491 21.2294 330.469 20.2708C328.494 18.0146 328.645 17.056 328.785 16.3663C328.994 15.3142 329.679 14.5309 329.679 14.5309C329.679 14.5309 334.604 7.93765 335.359 7.14272C336.125 6.33609 337.113 6.72187 337.113 6.72187C338.321 7.18948 338.321 7.97272 338.321 10.5329V27.3317C338.321 27.3317 338.53 30.1607 336.253 32.6741M340.376 27.3317V10.5329C340.376 7.97272 340.376 7.18948 341.584 6.72187C341.584 6.72187 342.572 6.33609 343.338 7.14272C344.105 7.94934 349.018 14.5309 349.018 14.5309C349.018 14.5309 349.703 15.3142 349.912 16.3663C349.912 16.3663 350.923 18.9148 348.426 22.001C345.986 25.0287 343.35 27.8344 345.011 30.0205L345.069 30.0789C347.241 31.8441 350.028 29.0969 353.037 26.642C356.103 24.1403 358.635 25.1456 358.635 25.1456C359.68 25.3561 360.459 26.0458 360.459 26.0458C360.459 26.0458 367.009 31.0024 367.799 31.7623C368.601 32.5339 368.217 33.5275 368.217 33.5275C367.753 34.7433 366.975 34.7433 364.431 34.7433H347.74C347.74 34.7433 344.929 34.9537 342.432 32.6624H342.421C340.156 30.1257 340.353 27.2966 340.353 27.2966M367.834 39.9688C367.033 40.7404 360.482 45.6853 360.482 45.6853C360.482 45.6853 359.704 46.3751 358.658 46.5855C357.973 46.7258 357.021 46.8894 354.779 44.8904C353.826 43.8617 352.723 43.2888 351.329 43.2655C351.329 43.2655 351.283 43.2655 351.26 43.2655C348.693 43.2655 346.602 45.358 346.602 47.9532C346.602 47.9883 346.602 48.0234 346.602 48.0584C346.625 49.4613 347.194 50.5835 348.216 51.5304C350.191 53.7867 350.04 54.7452 349.901 55.435C349.692 56.4871 349.006 57.2703 349.006 57.2703C349.006 57.2703 344.082 63.8636 343.327 64.6585C342.56 65.4652 341.573 65.0794 341.573 65.0794C340.365 64.6118 340.365 63.8285 340.365 61.2684V44.4696C340.365 44.4696 340.156 41.6405 342.432 39.1271L342.49 39.057C344.987 36.7774 347.787 36.9761 347.787 36.9761H364.477C367.021 36.9761 367.799 36.9761 368.264 38.1919C368.264 38.1919 368.647 39.1856 367.846 39.9571" fill="white"/>
<path d="M333.151 27.6707C332.094 27.6707 331.235 28.5357 331.235 29.5995C331.235 30.6633 332.094 31.5284 333.151 31.5284C334.208 31.5284 335.068 30.6633 335.068 29.5995C335.068 28.5357 334.208 27.6707 333.151 27.6707Z" fill="white"/>
<path d="M345.544 40.2144C344.487 40.2144 343.628 41.0794 343.628 42.1432C343.628 43.207 344.487 44.0721 345.544 44.0721C346.601 44.0721 347.461 43.207 347.461 42.1432C347.461 41.0794 346.601 40.2144 345.544 40.2144Z" fill="white"/>
</g>
<defs>
<clipPath id="clip0_81_18">
<rect width="375" height="72" fill="white"/>
</clipPath>
</defs>
</svg>
