<svg width="212" height="209" viewBox="0 0 212 209" fill="none" xmlns="http://www.w3.org/2000/svg">
<g opacity="0.23" clip-path="url(#clip0_37_150)">
<mask id="path-1-inside-1_37_150" fill="white">
<path d="M204.113 -10.1578C204.113 -8.38016 202.652 -6.94051 200.852 -6.94051C199.05 -6.94051 197.591 -8.38016 197.591 -10.1578C197.591 -11.9354 199.05 -13.3775 200.852 -13.3775C202.652 -13.3775 204.113 -11.9355 204.113 -10.1578ZM225.285 10.6123C225.285 12.39 223.826 13.832 222.024 13.832C220.222 13.832 218.763 12.39 218.763 10.6123C218.763 8.83458 220.222 7.395 222.024 7.395C223.826 7.395 225.285 8.83466 225.285 10.6123ZM204.546 -47.5858C203.245 -46.2483 194.89 -35.2687 194.89 -35.2687C194.89 -35.2687 193.73 -33.958 193.365 -32.2022C193.124 -31.0544 192.859 -29.4494 196.217 -25.6971C197.946 -24.1066 198.912 -22.2536 198.958 -19.9094L198.956 -19.9045L198.96 -19.7829C198.96 -15.4738 195.42 -11.9817 191.055 -11.9817L190.884 -11.9865C188.511 -12.0303 186.631 -12.986 185.019 -14.6932C181.218 -18.0077 179.593 -17.7427 178.429 -17.5092C176.649 -17.1468 175.323 -16.0038 175.323 -16.0038C175.323 -16.0038 164.198 -7.75514 162.843 -6.47119C161.486 -5.1896 162.14 -3.52872 162.14 -3.52872C162.933 -1.49811 164.249 -1.49811 168.573 -1.49811L196.935 -1.49811C196.935 -1.49811 201.706 -1.15044 205.959 -4.95615L206.069 -5.04617C209.923 -9.24589 209.585 -13.9369 209.585 -13.9369L209.585 -41.9295C209.585 -46.1973 209.585 -47.4959 207.528 -48.2788C207.528 -48.2788 205.845 -48.9232 204.546 -47.5858ZM225.939 -1.49809L254.304 -1.49809C258.627 -1.49809 259.943 -1.49809 260.736 -3.5287C260.736 -3.5287 261.388 -5.18958 260.033 -6.47117C258.678 -7.75511 247.553 -16.0038 247.553 -16.0038C247.553 -16.0038 246.225 -17.1468 244.448 -17.5092C244.448 -17.5092 240.148 -19.1968 234.932 -15.0238C229.815 -10.9335 225.095 -6.50524 221.387 -9.3018L221.292 -9.39418C218.31 -13.0444 222.945 -17.7134 227.092 -22.7619C231.318 -27.91 229.606 -32.1535 229.606 -32.1535C229.241 -33.9117 228.082 -35.22 228.082 -35.22C228.082 -35.22 219.726 -46.1996 218.425 -47.5371C217.126 -48.8747 215.443 -48.2302 215.443 -48.2302C213.386 -47.4495 213.386 -46.1485 213.386 -41.8832L213.386 -13.8881C213.386 -13.8881 213.033 -9.18259 216.89 -4.98287L216.917 -4.95608C221.17 -1.15036 225.939 -1.49809 225.939 -1.49809ZM216.917 5.41069L216.808 5.50064C212.953 9.70036 213.291 14.3914 213.291 14.3914L213.291 42.3839C213.291 46.6517 213.291 47.9503 215.346 48.7333C215.346 48.7333 217.031 49.3778 218.33 48.0403C219.629 46.7028 227.987 35.7232 227.987 35.7232C227.987 35.7232 229.147 34.4125 229.511 32.6567C229.752 31.5089 230.017 29.9039 226.659 26.1516C224.93 24.5611 223.962 22.7081 223.918 20.3639L223.918 20.359L223.916 20.2374C223.916 15.9283 227.454 12.4361 231.822 12.4361L231.992 12.441C234.365 12.4848 236.243 13.4405 237.857 15.1477C241.658 18.4622 243.283 18.1972 244.448 17.9637C246.225 17.6014 247.553 16.4584 247.553 16.4584C247.553 16.4584 258.679 8.20963 260.033 6.92568C261.388 5.64409 260.736 3.98322 260.736 3.98322C259.943 1.9526 258.627 1.9526 254.304 1.9526L225.939 1.9526C225.939 1.9526 221.17 1.6049 216.917 5.41069ZM196.935 1.99883L168.573 1.99883C164.249 1.99883 162.933 1.99883 162.14 4.02937C162.14 4.02937 161.486 5.69278 162.843 6.9743C164.198 8.25589 175.323 16.5046 175.323 16.5046C175.323 16.5046 176.649 17.65 178.429 18.0099C178.429 18.0099 182.728 19.6975 187.944 15.527C193.061 11.4343 197.781 7.00837 201.49 9.80492L201.584 9.89731C204.566 13.5475 199.931 18.2166 195.785 23.265C191.558 28.4131 193.268 32.6567 193.268 32.6567C193.635 34.4125 194.792 35.7232 194.792 35.7232C194.792 35.7232 203.151 46.7028 204.449 48.0403C205.75 49.3778 207.433 48.7333 207.433 48.7333C209.49 47.9503 209.49 46.6517 209.49 42.3839L209.49 14.3913C209.49 14.3913 209.843 9.68336 205.986 5.486L205.959 5.45928C201.706 1.65349 196.935 1.99883 196.935 1.99883ZM211.438 -59.5455L224.925 -46.2336C224.925 -46.2336 232.16 -38.4422 232.079 -32.1924C231.997 -25.9451 227.335 -23.8441 227.469 -20.0261C227.539 -18.0417 228.453 -17.1541 228.709 -16.9158L228.779 -16.8526C229.027 -16.624 229.934 -15.7486 231.919 -15.6804C235.788 -15.5467 237.916 -20.1477 244.248 -20.228C250.578 -20.3107 258.474 -13.1684 258.474 -13.1684L271.961 0.14336L272 0.182243L271.961 0.221199L258.474 13.5305C258.474 13.5305 250.578 20.6727 244.248 20.5924C237.916 20.5098 235.788 15.9088 231.919 16.0425C229.786 16.1179 228.915 17.1296 228.733 17.3071L228.704 17.3338C228.529 17.5114 227.544 18.3868 227.469 20.4806C227.335 24.2986 231.997 26.3996 232.079 32.647C232.16 38.8967 224.925 46.6883 224.925 46.6883L211.438 60L197.951 46.6883C197.951 46.6883 190.717 38.8967 190.797 32.6469C190.88 26.3996 195.541 24.2986 195.405 20.4806C195.335 18.4962 194.423 17.6086 194.167 17.3703L194.097 17.3071C193.849 17.0785 192.942 16.203 190.957 16.1349C187.088 16.0012 184.961 20.6022 178.628 20.6825C172.296 20.7651 164.402 13.6229 164.402 13.6229L150.915 0.311136L150.876 0.274705L150.915 0.233289L164.402 -13.076C164.402 -13.076 172.296 -20.2182 178.628 -20.1379C184.961 -20.0553 187.088 -15.4543 190.957 -15.588C193.09 -15.6634 193.961 -16.675 194.143 -16.8526L194.172 -16.8793C194.347 -17.0569 195.332 -17.9323 195.405 -20.0261C195.541 -23.8441 190.88 -25.9451 190.797 -32.1925C190.717 -38.4422 197.951 -46.2336 197.951 -46.2336L211.438 -59.5455Z"/>
</mask>
<path d="M204.113 -10.1578C204.113 -8.38016 202.652 -6.94051 200.852 -6.94051C199.05 -6.94051 197.591 -8.38016 197.591 -10.1578C197.591 -11.9354 199.05 -13.3775 200.852 -13.3775C202.652 -13.3775 204.113 -11.9355 204.113 -10.1578ZM225.285 10.6123C225.285 12.39 223.826 13.832 222.024 13.832C220.222 13.832 218.763 12.39 218.763 10.6123C218.763 8.83458 220.222 7.395 222.024 7.395C223.826 7.395 225.285 8.83466 225.285 10.6123ZM204.546 -47.5858C203.245 -46.2483 194.89 -35.2687 194.89 -35.2687C194.89 -35.2687 193.73 -33.958 193.365 -32.2022C193.124 -31.0544 192.859 -29.4494 196.217 -25.6971C197.946 -24.1066 198.912 -22.2536 198.958 -19.9094L198.956 -19.9045L198.96 -19.7829C198.96 -15.4738 195.42 -11.9817 191.055 -11.9817L190.884 -11.9865C188.511 -12.0303 186.631 -12.986 185.019 -14.6932C181.218 -18.0077 179.593 -17.7427 178.429 -17.5092C176.649 -17.1468 175.323 -16.0038 175.323 -16.0038C175.323 -16.0038 164.198 -7.75514 162.843 -6.47119C161.486 -5.1896 162.14 -3.52872 162.14 -3.52872C162.933 -1.49811 164.249 -1.49811 168.573 -1.49811L196.935 -1.49811C196.935 -1.49811 201.706 -1.15044 205.959 -4.95615L206.069 -5.04617C209.923 -9.24589 209.585 -13.9369 209.585 -13.9369L209.585 -41.9295C209.585 -46.1973 209.585 -47.4959 207.528 -48.2788C207.528 -48.2788 205.845 -48.9232 204.546 -47.5858ZM225.939 -1.49809L254.304 -1.49809C258.627 -1.49809 259.943 -1.49809 260.736 -3.5287C260.736 -3.5287 261.388 -5.18958 260.033 -6.47117C258.678 -7.75511 247.553 -16.0038 247.553 -16.0038C247.553 -16.0038 246.225 -17.1468 244.448 -17.5092C244.448 -17.5092 240.148 -19.1968 234.932 -15.0238C229.815 -10.9335 225.095 -6.50524 221.387 -9.3018L221.292 -9.39418C218.31 -13.0444 222.945 -17.7134 227.092 -22.7619C231.318 -27.91 229.606 -32.1535 229.606 -32.1535C229.241 -33.9117 228.082 -35.22 228.082 -35.22C228.082 -35.22 219.726 -46.1996 218.425 -47.5371C217.126 -48.8747 215.443 -48.2302 215.443 -48.2302C213.386 -47.4495 213.386 -46.1485 213.386 -41.8832L213.386 -13.8881C213.386 -13.8881 213.033 -9.18259 216.89 -4.98287L216.917 -4.95608C221.17 -1.15036 225.939 -1.49809 225.939 -1.49809ZM216.917 5.41069L216.808 5.50064C212.953 9.70036 213.291 14.3914 213.291 14.3914L213.291 42.3839C213.291 46.6517 213.291 47.9503 215.346 48.7333C215.346 48.7333 217.031 49.3778 218.33 48.0403C219.629 46.7028 227.987 35.7232 227.987 35.7232C227.987 35.7232 229.147 34.4125 229.511 32.6567C229.752 31.5089 230.017 29.9039 226.659 26.1516C224.93 24.5611 223.962 22.7081 223.918 20.3639L223.918 20.359L223.916 20.2374C223.916 15.9283 227.454 12.4361 231.822 12.4361L231.992 12.441C234.365 12.4848 236.243 13.4405 237.857 15.1477C241.658 18.4622 243.283 18.1972 244.448 17.9637C246.225 17.6014 247.553 16.4584 247.553 16.4584C247.553 16.4584 258.679 8.20963 260.033 6.92568C261.388 5.64409 260.736 3.98322 260.736 3.98322C259.943 1.9526 258.627 1.9526 254.304 1.9526L225.939 1.9526C225.939 1.9526 221.17 1.6049 216.917 5.41069ZM196.935 1.99883L168.573 1.99883C164.249 1.99883 162.933 1.99883 162.14 4.02937C162.14 4.02937 161.486 5.69278 162.843 6.9743C164.198 8.25589 175.323 16.5046 175.323 16.5046C175.323 16.5046 176.649 17.65 178.429 18.0099C178.429 18.0099 182.728 19.6975 187.944 15.527C193.061 11.4343 197.781 7.00837 201.49 9.80492L201.584 9.89731C204.566 13.5475 199.931 18.2166 195.785 23.265C191.558 28.4131 193.268 32.6567 193.268 32.6567C193.635 34.4125 194.792 35.7232 194.792 35.7232C194.792 35.7232 203.151 46.7028 204.449 48.0403C205.75 49.3778 207.433 48.7333 207.433 48.7333C209.49 47.9503 209.49 46.6517 209.49 42.3839L209.49 14.3913C209.49 14.3913 209.843 9.68336 205.986 5.486L205.959 5.45928C201.706 1.65349 196.935 1.99883 196.935 1.99883ZM211.438 -59.5455L224.925 -46.2336C224.925 -46.2336 232.16 -38.4422 232.079 -32.1924C231.997 -25.9451 227.335 -23.8441 227.469 -20.0261C227.539 -18.0417 228.453 -17.1541 228.709 -16.9158L228.779 -16.8526C229.027 -16.624 229.934 -15.7486 231.919 -15.6804C235.788 -15.5467 237.916 -20.1477 244.248 -20.228C250.578 -20.3107 258.474 -13.1684 258.474 -13.1684L271.961 0.14336L272 0.182243L271.961 0.221199L258.474 13.5305C258.474 13.5305 250.578 20.6727 244.248 20.5924C237.916 20.5098 235.788 15.9088 231.919 16.0425C229.786 16.1179 228.915 17.1296 228.733 17.3071L228.704 17.3338C228.529 17.5114 227.544 18.3868 227.469 20.4806C227.335 24.2986 231.997 26.3996 232.079 32.647C232.16 38.8967 224.925 46.6883 224.925 46.6883L211.438 60L197.951 46.6883C197.951 46.6883 190.717 38.8967 190.797 32.6469C190.88 26.3996 195.541 24.2986 195.405 20.4806C195.335 18.4962 194.423 17.6086 194.167 17.3703L194.097 17.3071C193.849 17.0785 192.942 16.203 190.957 16.1349C187.088 16.0012 184.961 20.6022 178.628 20.6825C172.296 20.7651 164.402 13.6229 164.402 13.6229L150.915 0.311136L150.876 0.274705L150.915 0.233289L164.402 -13.076C164.402 -13.076 172.296 -20.2182 178.628 -20.1379C184.961 -20.0553 187.088 -15.4543 190.957 -15.588C193.09 -15.6634 193.961 -16.675 194.143 -16.8526L194.172 -16.8793C194.347 -17.0569 195.332 -17.9323 195.405 -20.0261C195.541 -23.8441 190.88 -25.9451 190.797 -32.1925C190.717 -38.4422 197.951 -46.2336 197.951 -46.2336L211.438 -59.5455Z" stroke="#2C5465" stroke-width="2" mask="url(#path-1-inside-1_37_150)"/>
<mask id="path-2-inside-2_37_150" fill="white">
<path d="M53.1135 -10.1578C53.1135 -8.38016 51.6519 -6.94051 49.8524 -6.94051C48.0504 -6.94051 46.5914 -8.38016 46.5914 -10.1578C46.5914 -11.9354 48.0504 -13.3775 49.8524 -13.3775C51.6519 -13.3775 53.1135 -11.9355 53.1135 -10.1578ZM74.2848 10.6123C74.2848 12.39 72.8258 13.832 71.0238 13.832C69.2219 13.832 67.7627 12.39 67.7627 10.6123C67.7627 8.83458 69.2219 7.395 71.0238 7.395C72.8258 7.395 74.2848 8.83466 74.2848 10.6123ZM53.5463 -47.5858C52.2454 -46.2483 43.8896 -35.2687 43.8896 -35.2687C43.8896 -35.2687 42.7296 -33.958 42.3649 -32.2022C42.1242 -31.0544 41.8591 -29.4494 45.2174 -25.6971C46.9464 -24.1066 47.9119 -22.2536 47.9581 -19.9094L47.9555 -19.9045L47.9604 -19.7829C47.9604 -15.4738 44.4197 -11.9817 40.0546 -11.9817L39.8844 -11.9865C37.5109 -12.0303 35.6311 -12.986 34.0189 -14.6932C30.218 -18.0077 28.5935 -17.7427 27.4286 -17.5092C25.6486 -17.1468 24.3232 -16.0038 24.3232 -16.0038C24.3232 -16.0038 13.1977 -7.75514 11.8431 -6.47119C10.4862 -5.1896 11.1403 -3.52872 11.1403 -3.52872C11.9331 -1.49811 13.2487 -1.49811 17.5725 -1.49811L45.9347 -1.49811C45.9347 -1.49811 50.706 -1.15044 54.9591 -4.95615L55.0686 -5.04617C58.923 -9.24589 58.585 -13.9369 58.585 -13.9369L58.585 -41.9295C58.585 -46.1973 58.585 -47.4959 56.5277 -48.2788C56.5277 -48.2788 54.8449 -48.9232 53.5463 -47.5858ZM74.939 -1.49809L103.304 -1.49809C107.627 -1.49809 108.943 -1.49809 109.736 -3.5287C109.736 -3.5287 110.388 -5.18958 109.033 -6.47117C107.678 -7.75511 96.5529 -16.0038 96.5529 -16.0038C96.5529 -16.0038 95.2252 -17.1468 93.4475 -17.5092C93.4475 -17.5092 89.1481 -19.1968 83.9318 -15.0238C78.8153 -10.9335 74.0952 -6.50524 70.3866 -9.3018L70.2917 -9.39418C67.3105 -13.0444 71.9455 -17.7134 76.0916 -22.7619C80.3182 -27.91 78.6061 -32.1535 78.6061 -32.1535C78.2415 -33.9117 77.0815 -35.22 77.0815 -35.22C77.0815 -35.22 68.7257 -46.1996 67.4248 -47.5371C66.1262 -48.8747 64.4433 -48.2302 64.4433 -48.2302C62.386 -47.4495 62.386 -46.1485 62.386 -41.8832L62.386 -13.8881C62.386 -13.8881 62.0333 -9.18259 65.8902 -4.98287L65.9171 -4.95608C70.1702 -1.15036 74.939 -1.49809 74.939 -1.49809ZM65.917 5.41069L65.8075 5.50064C61.9532 9.70036 62.2912 14.3914 62.2912 14.3914L62.2912 42.3839C62.2912 46.6517 62.2912 47.9503 64.3461 48.7333C64.3461 48.7333 66.0313 49.3778 67.3299 48.0403C68.6285 46.7028 76.9867 35.7232 76.9867 35.7232C76.9867 35.7232 78.1466 34.4125 78.5113 32.6567C78.752 31.5089 79.0171 29.9039 75.6588 26.1516C73.9298 24.5611 72.9619 22.7081 72.9182 20.3639L72.9182 20.359L72.9158 20.2374C72.9158 15.9283 76.4541 12.4361 80.8216 12.4361L80.9918 12.441C83.3653 12.4848 85.2426 13.4405 86.8573 15.1477C90.6582 18.4622 92.2827 18.1972 93.4476 17.9637C95.2253 17.6014 96.5529 16.4584 96.5529 16.4584C96.5529 16.4584 107.679 8.20963 109.033 6.92568C110.388 5.64409 109.736 3.98322 109.736 3.98322C108.943 1.9526 107.627 1.9526 103.304 1.9526L74.939 1.9526C74.939 1.9526 70.1702 1.6049 65.917 5.41069ZM45.9347 1.99883L17.5726 1.99883C13.2488 1.99883 11.9332 1.99883 11.1404 4.02937C11.1404 4.02937 10.4863 5.69278 11.8432 6.9743C13.1978 8.25589 24.3233 16.5046 24.3233 16.5046C24.3233 16.5046 25.6486 17.65 27.4287 18.0099C27.4287 18.0099 31.7282 19.6975 36.9444 15.527C42.061 11.4343 46.7811 7.00837 50.4896 9.80492L50.5845 9.89731C53.5658 13.5475 48.9307 18.2166 44.7846 23.265C40.558 28.4131 42.2676 32.6567 42.2676 32.6567C42.6348 34.4125 43.7924 35.7232 43.7924 35.7232C43.7924 35.7232 52.1505 46.7028 53.4491 48.0403C54.7501 49.3778 56.4329 48.7333 56.4329 48.7333C58.4903 47.9503 58.4903 46.6517 58.4903 42.3839L58.4903 14.3913C58.4903 14.3913 58.8429 9.68336 54.9861 5.486L54.9592 5.45928C50.706 1.65349 45.9347 1.99883 45.9347 1.99883ZM60.4382 -59.5455L73.9249 -46.2336C73.9249 -46.2336 81.1597 -38.4422 81.0794 -32.1924C80.9967 -25.9451 76.3349 -23.8441 76.4686 -20.0261C76.5391 -18.0417 77.4534 -17.1541 77.7089 -16.9158L77.7794 -16.8526C78.0274 -16.624 78.9344 -15.7486 80.9189 -15.6804C84.7878 -15.5467 86.9156 -20.1477 93.2481 -20.228C99.5781 -20.3107 107.474 -13.1684 107.474 -13.1684L120.961 0.14336L121 0.182243L120.961 0.221199L107.474 13.5305C107.474 13.5305 99.5781 20.6727 93.248 20.5924C86.9156 20.5098 84.7878 15.9088 80.9189 16.0425C78.7862 16.1179 77.9155 17.1296 77.7332 17.3071L77.704 17.3338C77.5288 17.5114 76.544 18.3868 76.4686 20.4806C76.3349 24.2986 80.9966 26.3996 81.0793 32.647C81.1596 38.8967 73.9249 46.6883 73.9249 46.6883L60.4382 60L46.9513 46.6883C46.9513 46.6883 39.7166 38.8967 39.7969 32.6469C39.8796 26.3996 44.5413 24.2986 44.4052 20.4806C44.3347 18.4962 43.4228 17.6086 43.1673 17.3703L43.0968 17.3071C42.8488 17.0785 41.9418 16.203 39.9573 16.1349C36.0885 16.0012 33.9606 20.6022 27.6282 20.6825C21.2957 20.7651 13.402 13.6229 13.402 13.6229L-0.0847709 0.311136L-0.123803 0.274705L-0.0847709 0.233289L13.402 -13.076C13.402 -13.076 21.2957 -20.2182 27.6281 -20.1379C33.9606 -20.0553 36.0884 -15.4543 39.9573 -15.588C42.09 -15.6634 42.9607 -16.675 43.143 -16.8526L43.1722 -16.8793C43.3474 -17.0569 44.3322 -17.9323 44.4052 -20.0261C44.5413 -23.8441 39.8796 -25.9451 39.7969 -32.1925C39.7166 -38.4422 46.9513 -46.2336 46.9513 -46.2336L60.4382 -59.5455Z"/>
</mask>
<path d="M53.1135 -10.1578C53.1135 -8.38016 51.6519 -6.94051 49.8524 -6.94051C48.0504 -6.94051 46.5914 -8.38016 46.5914 -10.1578C46.5914 -11.9354 48.0504 -13.3775 49.8524 -13.3775C51.6519 -13.3775 53.1135 -11.9355 53.1135 -10.1578ZM74.2848 10.6123C74.2848 12.39 72.8258 13.832 71.0238 13.832C69.2219 13.832 67.7627 12.39 67.7627 10.6123C67.7627 8.83458 69.2219 7.395 71.0238 7.395C72.8258 7.395 74.2848 8.83466 74.2848 10.6123ZM53.5463 -47.5858C52.2454 -46.2483 43.8896 -35.2687 43.8896 -35.2687C43.8896 -35.2687 42.7296 -33.958 42.3649 -32.2022C42.1242 -31.0544 41.8591 -29.4494 45.2174 -25.6971C46.9464 -24.1066 47.9119 -22.2536 47.9581 -19.9094L47.9555 -19.9045L47.9604 -19.7829C47.9604 -15.4738 44.4197 -11.9817 40.0546 -11.9817L39.8844 -11.9865C37.5109 -12.0303 35.6311 -12.986 34.0189 -14.6932C30.218 -18.0077 28.5935 -17.7427 27.4286 -17.5092C25.6486 -17.1468 24.3232 -16.0038 24.3232 -16.0038C24.3232 -16.0038 13.1977 -7.75514 11.8431 -6.47119C10.4862 -5.1896 11.1403 -3.52872 11.1403 -3.52872C11.9331 -1.49811 13.2487 -1.49811 17.5725 -1.49811L45.9347 -1.49811C45.9347 -1.49811 50.706 -1.15044 54.9591 -4.95615L55.0686 -5.04617C58.923 -9.24589 58.585 -13.9369 58.585 -13.9369L58.585 -41.9295C58.585 -46.1973 58.585 -47.4959 56.5277 -48.2788C56.5277 -48.2788 54.8449 -48.9232 53.5463 -47.5858ZM74.939 -1.49809L103.304 -1.49809C107.627 -1.49809 108.943 -1.49809 109.736 -3.5287C109.736 -3.5287 110.388 -5.18958 109.033 -6.47117C107.678 -7.75511 96.5529 -16.0038 96.5529 -16.0038C96.5529 -16.0038 95.2252 -17.1468 93.4475 -17.5092C93.4475 -17.5092 89.1481 -19.1968 83.9318 -15.0238C78.8153 -10.9335 74.0952 -6.50524 70.3866 -9.3018L70.2917 -9.39418C67.3105 -13.0444 71.9455 -17.7134 76.0916 -22.7619C80.3182 -27.91 78.6061 -32.1535 78.6061 -32.1535C78.2415 -33.9117 77.0815 -35.22 77.0815 -35.22C77.0815 -35.22 68.7257 -46.1996 67.4248 -47.5371C66.1262 -48.8747 64.4433 -48.2302 64.4433 -48.2302C62.386 -47.4495 62.386 -46.1485 62.386 -41.8832L62.386 -13.8881C62.386 -13.8881 62.0333 -9.18259 65.8902 -4.98287L65.9171 -4.95608C70.1702 -1.15036 74.939 -1.49809 74.939 -1.49809ZM65.917 5.41069L65.8075 5.50064C61.9532 9.70036 62.2912 14.3914 62.2912 14.3914L62.2912 42.3839C62.2912 46.6517 62.2912 47.9503 64.3461 48.7333C64.3461 48.7333 66.0313 49.3778 67.3299 48.0403C68.6285 46.7028 76.9867 35.7232 76.9867 35.7232C76.9867 35.7232 78.1466 34.4125 78.5113 32.6567C78.752 31.5089 79.0171 29.9039 75.6588 26.1516C73.9298 24.5611 72.9619 22.7081 72.9182 20.3639L72.9182 20.359L72.9158 20.2374C72.9158 15.9283 76.4541 12.4361 80.8216 12.4361L80.9918 12.441C83.3653 12.4848 85.2426 13.4405 86.8573 15.1477C90.6582 18.4622 92.2827 18.1972 93.4476 17.9637C95.2253 17.6014 96.5529 16.4584 96.5529 16.4584C96.5529 16.4584 107.679 8.20963 109.033 6.92568C110.388 5.64409 109.736 3.98322 109.736 3.98322C108.943 1.9526 107.627 1.9526 103.304 1.9526L74.939 1.9526C74.939 1.9526 70.1702 1.6049 65.917 5.41069ZM45.9347 1.99883L17.5726 1.99883C13.2488 1.99883 11.9332 1.99883 11.1404 4.02937C11.1404 4.02937 10.4863 5.69278 11.8432 6.9743C13.1978 8.25589 24.3233 16.5046 24.3233 16.5046C24.3233 16.5046 25.6486 17.65 27.4287 18.0099C27.4287 18.0099 31.7282 19.6975 36.9444 15.527C42.061 11.4343 46.7811 7.00837 50.4896 9.80492L50.5845 9.89731C53.5658 13.5475 48.9307 18.2166 44.7846 23.265C40.558 28.4131 42.2676 32.6567 42.2676 32.6567C42.6348 34.4125 43.7924 35.7232 43.7924 35.7232C43.7924 35.7232 52.1505 46.7028 53.4491 48.0403C54.7501 49.3778 56.4329 48.7333 56.4329 48.7333C58.4903 47.9503 58.4903 46.6517 58.4903 42.3839L58.4903 14.3913C58.4903 14.3913 58.8429 9.68336 54.9861 5.486L54.9592 5.45928C50.706 1.65349 45.9347 1.99883 45.9347 1.99883ZM60.4382 -59.5455L73.9249 -46.2336C73.9249 -46.2336 81.1597 -38.4422 81.0794 -32.1924C80.9967 -25.9451 76.3349 -23.8441 76.4686 -20.0261C76.5391 -18.0417 77.4534 -17.1541 77.7089 -16.9158L77.7794 -16.8526C78.0274 -16.624 78.9344 -15.7486 80.9189 -15.6804C84.7878 -15.5467 86.9156 -20.1477 93.2481 -20.228C99.5781 -20.3107 107.474 -13.1684 107.474 -13.1684L120.961 0.14336L121 0.182243L120.961 0.221199L107.474 13.5305C107.474 13.5305 99.5781 20.6727 93.248 20.5924C86.9156 20.5098 84.7878 15.9088 80.9189 16.0425C78.7862 16.1179 77.9155 17.1296 77.7332 17.3071L77.704 17.3338C77.5288 17.5114 76.544 18.3868 76.4686 20.4806C76.3349 24.2986 80.9966 26.3996 81.0793 32.647C81.1596 38.8967 73.9249 46.6883 73.9249 46.6883L60.4382 60L46.9513 46.6883C46.9513 46.6883 39.7166 38.8967 39.7969 32.6469C39.8796 26.3996 44.5413 24.2986 44.4052 20.4806C44.3347 18.4962 43.4228 17.6086 43.1673 17.3703L43.0968 17.3071C42.8488 17.0785 41.9418 16.203 39.9573 16.1349C36.0885 16.0012 33.9606 20.6022 27.6282 20.6825C21.2957 20.7651 13.402 13.6229 13.402 13.6229L-0.0847709 0.311136L-0.123803 0.274705L-0.0847709 0.233289L13.402 -13.076C13.402 -13.076 21.2957 -20.2182 27.6281 -20.1379C33.9606 -20.0553 36.0884 -15.4543 39.9573 -15.588C42.09 -15.6634 42.9607 -16.675 43.143 -16.8526L43.1722 -16.8793C43.3474 -17.0569 44.3322 -17.9323 44.4052 -20.0261C44.5413 -23.8441 39.8796 -25.9451 39.7969 -32.1925C39.7166 -38.4422 46.9513 -46.2336 46.9513 -46.2336L60.4382 -59.5455Z" stroke="#2C5465" stroke-width="2" mask="url(#path-2-inside-2_37_150)"/>
<path d="M129.113 63.8422C129.113 65.6198 127.652 67.0595 125.852 67.0595C124.05 67.0595 122.591 65.6198 122.591 63.8422C122.591 62.0646 124.05 60.6225 125.852 60.6225C127.652 60.6225 129.113 62.0645 129.113 63.8422ZM150.285 84.6123C150.285 86.39 148.826 87.832 147.024 87.832C145.222 87.832 143.763 86.39 143.763 84.6123C143.763 82.8346 145.222 81.395 147.024 81.395C148.826 81.395 150.285 82.8347 150.285 84.6123ZM129.546 26.4142C128.245 27.7517 119.89 38.7313 119.89 38.7313C119.89 38.7313 118.73 40.042 118.365 41.7978C118.124 42.9456 117.859 44.5506 121.217 48.3029C122.946 49.8934 123.912 51.7464 123.958 54.0906L123.956 54.0955L123.96 54.2171C123.96 58.5262 120.42 62.0183 116.055 62.0183L115.884 62.0135C113.511 61.9697 111.631 61.014 110.019 59.3068C106.218 55.9923 104.593 56.2573 103.429 56.4908C101.649 56.8532 100.323 57.9962 100.323 57.9962C100.323 57.9962 89.1977 66.2449 87.8431 67.5288C86.4862 68.8104 87.1403 70.4713 87.1403 70.4713C87.9331 72.5019 89.2487 72.5019 93.5725 72.5019L121.935 72.5019C121.935 72.5019 126.706 72.8496 130.959 69.0439L131.069 68.9538C134.923 64.7541 134.585 60.0631 134.585 60.0631L134.585 32.0705C134.585 27.8027 134.585 26.5041 132.528 25.7212C132.528 25.7212 130.845 25.0768 129.546 26.4142ZM150.939 72.5019L179.304 72.5019C183.627 72.5019 184.943 72.5019 185.736 70.4713C185.736 70.4713 186.388 68.8104 185.033 67.5288C183.678 66.2449 172.553 57.9962 172.553 57.9962C172.553 57.9962 171.225 56.8532 169.448 56.4908C169.448 56.4908 165.148 54.8032 159.932 58.9762C154.815 63.0665 150.095 67.4948 146.387 64.6982L146.292 64.6058C143.31 60.9556 147.945 56.2866 152.092 51.2381C156.318 46.09 154.606 41.8465 154.606 41.8465C154.241 40.0883 153.082 38.78 153.082 38.78C153.082 38.78 144.726 27.8004 143.425 26.4629C142.126 25.1253 140.443 25.7698 140.443 25.7698C138.386 26.5505 138.386 27.8515 138.386 32.1168L138.386 60.1119C138.386 60.1119 138.033 64.8174 141.89 69.0171L141.917 69.0439C146.17 72.8496 150.939 72.5019 150.939 72.5019ZM141.917 79.4107L141.808 79.5006C137.953 83.7004 138.291 88.3914 138.291 88.3914L138.291 116.384C138.291 120.652 138.291 121.95 140.346 122.733C140.346 122.733 142.031 123.378 143.33 122.04C144.629 120.703 152.987 109.723 152.987 109.723C152.987 109.723 154.147 108.412 154.511 106.657C154.752 105.509 155.017 103.904 151.659 100.152C149.93 98.5611 148.962 96.7081 148.918 94.3639L148.918 94.359L148.916 94.2374C148.916 89.9283 152.454 86.4361 156.822 86.4361L156.992 86.441C159.365 86.4848 161.243 87.4405 162.857 89.1477C166.658 92.4622 168.283 92.1972 169.448 91.9637C171.225 91.6014 172.553 90.4584 172.553 90.4584C172.553 90.4584 183.679 82.2096 185.033 80.9257C186.388 79.6441 185.736 77.9832 185.736 77.9832C184.943 75.9526 183.627 75.9526 179.304 75.9526L150.939 75.9526C150.939 75.9526 146.17 75.6049 141.917 79.4107ZM121.935 75.9988L93.5726 75.9988C89.2488 75.9988 87.9332 75.9988 87.1404 78.0294C87.1404 78.0294 86.4863 79.6928 87.8432 80.9743C89.1978 82.2559 100.323 90.5046 100.323 90.5046C100.323 90.5046 101.649 91.65 103.429 92.0099C103.429 92.0099 107.728 93.6975 112.944 89.527C118.061 85.4343 122.781 81.0084 126.49 83.8049L126.584 83.8973C129.566 87.5475 124.931 92.2166 120.785 97.265C116.558 102.413 118.268 106.657 118.268 106.657C118.635 108.412 119.792 109.723 119.792 109.723C119.792 109.723 128.151 120.703 129.449 122.04C130.75 123.378 132.433 122.733 132.433 122.733C134.49 121.95 134.49 120.652 134.49 116.384L134.49 88.3913C134.49 88.3913 134.843 83.6834 130.986 79.486L130.959 79.4593C126.706 75.6535 121.935 75.9988 121.935 75.9988ZM136.438 14.4545L149.925 27.7664C149.925 27.7664 157.16 35.5578 157.079 41.8076C156.997 48.0549 152.335 50.1559 152.469 53.9739C152.539 55.9583 153.453 56.8459 153.709 57.0842L153.779 57.1474C154.027 57.376 154.934 58.2514 156.919 58.3196C160.788 58.4533 162.916 53.8523 169.248 53.772C175.578 53.6893 183.474 60.8316 183.474 60.8316L196.961 74.1434L197 74.1822L196.961 74.2212L183.474 87.5305C183.474 87.5305 175.578 94.6727 169.248 94.5924C162.916 94.5098 160.788 89.9088 156.919 90.0425C154.786 90.1179 153.915 91.1296 153.733 91.3071L153.704 91.3338C153.529 91.5114 152.544 92.3868 152.469 94.4806C152.335 98.2986 156.997 100.4 157.079 106.647C157.16 112.897 149.925 120.688 149.925 120.688L136.438 134L122.951 120.688C122.951 120.688 115.717 112.897 115.797 106.647C115.88 100.4 120.541 98.2986 120.405 94.4806C120.335 92.4962 119.423 91.6086 119.167 91.3703L119.097 91.3071C118.849 91.0785 117.942 90.203 115.957 90.1349C112.088 90.0012 109.961 94.6022 103.628 94.6825C97.2957 94.7651 89.402 87.6229 89.402 87.6229L75.9152 74.3111L75.8762 74.2747L75.9152 74.2333L89.402 60.924C89.402 60.924 97.2957 53.7818 103.628 53.8621C109.961 53.9447 112.088 58.5457 115.957 58.412C118.09 58.3366 118.961 57.325 119.143 57.1474L119.172 57.1207C119.347 56.9431 120.332 56.0677 120.405 53.9739C120.541 50.1559 115.88 48.0549 115.797 41.8075C115.717 35.5578 122.951 27.7664 122.951 27.7664L136.438 14.4545Z" fill="#2C5465"/>
<mask id="path-4-inside-3_37_150" fill="white">
<path d="M204.113 138.842C204.113 140.62 202.652 142.059 200.852 142.059C199.05 142.059 197.591 140.62 197.591 138.842C197.591 137.065 199.05 135.622 200.852 135.622C202.652 135.622 204.113 137.064 204.113 138.842ZM225.285 159.612C225.285 161.39 223.826 162.832 222.024 162.832C220.222 162.832 218.763 161.39 218.763 159.612C218.763 157.835 220.222 156.395 222.024 156.395C223.826 156.395 225.285 157.835 225.285 159.612ZM204.546 101.414C203.245 102.752 194.89 113.731 194.89 113.731C194.89 113.731 193.73 115.042 193.365 116.798C193.124 117.946 192.859 119.551 196.217 123.303C197.946 124.893 198.912 126.746 198.958 129.091L198.956 129.096L198.96 129.217C198.96 133.526 195.42 137.018 191.055 137.018L190.884 137.013C188.511 136.97 186.631 136.014 185.019 134.307C181.218 130.992 179.593 131.257 178.429 131.491C176.649 131.853 175.323 132.996 175.323 132.996C175.323 132.996 164.198 141.245 162.843 142.529C161.486 143.81 162.14 145.471 162.14 145.471C162.933 147.502 164.249 147.502 168.573 147.502L196.935 147.502C196.935 147.502 201.706 147.85 205.959 144.044L206.069 143.954C209.923 139.754 209.585 135.063 209.585 135.063L209.585 107.071C209.585 102.803 209.585 101.504 207.528 100.721C207.528 100.721 205.845 100.077 204.546 101.414ZM225.939 147.502L254.304 147.502C258.627 147.502 259.943 147.502 260.736 145.471C260.736 145.471 261.388 143.81 260.033 142.529C258.678 141.245 247.553 132.996 247.553 132.996C247.553 132.996 246.225 131.853 244.448 131.491C244.448 131.491 240.148 129.803 234.932 133.976C229.815 138.066 225.095 142.495 221.387 139.698L221.292 139.606C218.31 135.956 222.945 131.287 227.092 126.238C231.318 121.09 229.606 116.846 229.606 116.846C229.241 115.088 228.082 113.78 228.082 113.78C228.082 113.78 219.726 102.8 218.425 101.463C217.126 100.125 215.443 100.77 215.443 100.77C213.386 101.55 213.386 102.851 213.386 107.117L213.386 135.112C213.386 135.112 213.033 139.817 216.89 144.017L216.917 144.044C221.17 147.85 225.939 147.502 225.939 147.502ZM216.917 154.411L216.808 154.501C212.953 158.7 213.291 163.391 213.291 163.391L213.291 191.384C213.291 195.652 213.291 196.95 215.346 197.733C215.346 197.733 217.031 198.378 218.33 197.04C219.629 195.703 227.987 184.723 227.987 184.723C227.987 184.723 229.147 183.412 229.511 181.657C229.752 180.509 230.017 178.904 226.659 175.152C224.93 173.561 223.962 171.708 223.918 169.364L223.918 169.359L223.916 169.237C223.916 164.928 227.454 161.436 231.822 161.436L231.992 161.441C234.365 161.485 236.243 162.44 237.857 164.148C241.658 167.462 243.283 167.197 244.448 166.964C246.225 166.601 247.553 165.458 247.553 165.458C247.553 165.458 258.679 157.21 260.033 155.926C261.388 154.644 260.736 152.983 260.736 152.983C259.943 150.953 258.627 150.953 254.304 150.953L225.939 150.953C225.939 150.953 221.17 150.605 216.917 154.411ZM196.935 150.999L168.573 150.999C164.249 150.999 162.933 150.999 162.14 153.029C162.14 153.029 161.486 154.693 162.843 155.974C164.198 157.256 175.323 165.505 175.323 165.505C175.323 165.505 176.649 166.65 178.429 167.01C178.429 167.01 182.728 168.698 187.944 164.527C193.061 160.434 197.781 156.008 201.49 158.805L201.584 158.897C204.566 162.547 199.931 167.217 195.785 172.265C191.558 177.413 193.268 181.657 193.268 181.657C193.635 183.412 194.792 184.723 194.792 184.723C194.792 184.723 203.151 195.703 204.449 197.04C205.75 198.378 207.433 197.733 207.433 197.733C209.49 196.95 209.49 195.652 209.49 191.384L209.49 163.391C209.49 163.391 209.843 158.683 205.986 154.486L205.959 154.459C201.706 150.653 196.935 150.999 196.935 150.999ZM211.438 89.4545L224.925 102.766C224.925 102.766 232.16 110.558 232.079 116.808C231.997 123.055 227.335 125.156 227.469 128.974C227.539 130.958 228.453 131.846 228.709 132.084L228.779 132.147C229.027 132.376 229.934 133.251 231.919 133.32C235.788 133.453 237.916 128.852 244.248 128.772C250.578 128.689 258.474 135.832 258.474 135.832L271.961 149.143L272 149.182L271.961 149.221L258.474 162.53C258.474 162.53 250.578 169.673 244.248 169.592C237.916 169.51 235.788 164.909 231.919 165.043C229.786 165.118 228.915 166.13 228.733 166.307L228.704 166.334C228.529 166.511 227.544 167.387 227.469 169.481C227.335 173.299 231.997 175.4 232.079 181.647C232.16 187.897 224.925 195.688 224.925 195.688L211.438 209L197.951 195.688C197.951 195.688 190.717 187.897 190.797 181.647C190.88 175.4 195.541 173.299 195.405 169.481C195.335 167.496 194.423 166.609 194.167 166.37L194.097 166.307C193.849 166.078 192.942 165.203 190.957 165.135C187.088 165.001 184.961 169.602 178.628 169.682C172.296 169.765 164.402 162.623 164.402 162.623L150.915 149.311L150.876 149.275L150.915 149.233L164.402 135.924C164.402 135.924 172.296 128.782 178.628 128.862C184.961 128.945 187.088 133.546 190.957 133.412C193.09 133.337 193.961 132.325 194.143 132.147L194.172 132.121C194.347 131.943 195.332 131.068 195.405 128.974C195.541 125.156 190.88 123.055 190.797 116.808C190.717 110.558 197.951 102.766 197.951 102.766L211.438 89.4545Z"/>
</mask>
<path d="M204.113 138.842C204.113 140.62 202.652 142.059 200.852 142.059C199.05 142.059 197.591 140.62 197.591 138.842C197.591 137.065 199.05 135.622 200.852 135.622C202.652 135.622 204.113 137.064 204.113 138.842ZM225.285 159.612C225.285 161.39 223.826 162.832 222.024 162.832C220.222 162.832 218.763 161.39 218.763 159.612C218.763 157.835 220.222 156.395 222.024 156.395C223.826 156.395 225.285 157.835 225.285 159.612ZM204.546 101.414C203.245 102.752 194.89 113.731 194.89 113.731C194.89 113.731 193.73 115.042 193.365 116.798C193.124 117.946 192.859 119.551 196.217 123.303C197.946 124.893 198.912 126.746 198.958 129.091L198.956 129.096L198.96 129.217C198.96 133.526 195.42 137.018 191.055 137.018L190.884 137.013C188.511 136.97 186.631 136.014 185.019 134.307C181.218 130.992 179.593 131.257 178.429 131.491C176.649 131.853 175.323 132.996 175.323 132.996C175.323 132.996 164.198 141.245 162.843 142.529C161.486 143.81 162.14 145.471 162.14 145.471C162.933 147.502 164.249 147.502 168.573 147.502L196.935 147.502C196.935 147.502 201.706 147.85 205.959 144.044L206.069 143.954C209.923 139.754 209.585 135.063 209.585 135.063L209.585 107.071C209.585 102.803 209.585 101.504 207.528 100.721C207.528 100.721 205.845 100.077 204.546 101.414ZM225.939 147.502L254.304 147.502C258.627 147.502 259.943 147.502 260.736 145.471C260.736 145.471 261.388 143.81 260.033 142.529C258.678 141.245 247.553 132.996 247.553 132.996C247.553 132.996 246.225 131.853 244.448 131.491C244.448 131.491 240.148 129.803 234.932 133.976C229.815 138.066 225.095 142.495 221.387 139.698L221.292 139.606C218.31 135.956 222.945 131.287 227.092 126.238C231.318 121.09 229.606 116.846 229.606 116.846C229.241 115.088 228.082 113.78 228.082 113.78C228.082 113.78 219.726 102.8 218.425 101.463C217.126 100.125 215.443 100.77 215.443 100.77C213.386 101.55 213.386 102.851 213.386 107.117L213.386 135.112C213.386 135.112 213.033 139.817 216.89 144.017L216.917 144.044C221.17 147.85 225.939 147.502 225.939 147.502ZM216.917 154.411L216.808 154.501C212.953 158.7 213.291 163.391 213.291 163.391L213.291 191.384C213.291 195.652 213.291 196.95 215.346 197.733C215.346 197.733 217.031 198.378 218.33 197.04C219.629 195.703 227.987 184.723 227.987 184.723C227.987 184.723 229.147 183.412 229.511 181.657C229.752 180.509 230.017 178.904 226.659 175.152C224.93 173.561 223.962 171.708 223.918 169.364L223.918 169.359L223.916 169.237C223.916 164.928 227.454 161.436 231.822 161.436L231.992 161.441C234.365 161.485 236.243 162.44 237.857 164.148C241.658 167.462 243.283 167.197 244.448 166.964C246.225 166.601 247.553 165.458 247.553 165.458C247.553 165.458 258.679 157.21 260.033 155.926C261.388 154.644 260.736 152.983 260.736 152.983C259.943 150.953 258.627 150.953 254.304 150.953L225.939 150.953C225.939 150.953 221.17 150.605 216.917 154.411ZM196.935 150.999L168.573 150.999C164.249 150.999 162.933 150.999 162.14 153.029C162.14 153.029 161.486 154.693 162.843 155.974C164.198 157.256 175.323 165.505 175.323 165.505C175.323 165.505 176.649 166.65 178.429 167.01C178.429 167.01 182.728 168.698 187.944 164.527C193.061 160.434 197.781 156.008 201.49 158.805L201.584 158.897C204.566 162.547 199.931 167.217 195.785 172.265C191.558 177.413 193.268 181.657 193.268 181.657C193.635 183.412 194.792 184.723 194.792 184.723C194.792 184.723 203.151 195.703 204.449 197.04C205.75 198.378 207.433 197.733 207.433 197.733C209.49 196.95 209.49 195.652 209.49 191.384L209.49 163.391C209.49 163.391 209.843 158.683 205.986 154.486L205.959 154.459C201.706 150.653 196.935 150.999 196.935 150.999ZM211.438 89.4545L224.925 102.766C224.925 102.766 232.16 110.558 232.079 116.808C231.997 123.055 227.335 125.156 227.469 128.974C227.539 130.958 228.453 131.846 228.709 132.084L228.779 132.147C229.027 132.376 229.934 133.251 231.919 133.32C235.788 133.453 237.916 128.852 244.248 128.772C250.578 128.689 258.474 135.832 258.474 135.832L271.961 149.143L272 149.182L271.961 149.221L258.474 162.53C258.474 162.53 250.578 169.673 244.248 169.592C237.916 169.51 235.788 164.909 231.919 165.043C229.786 165.118 228.915 166.13 228.733 166.307L228.704 166.334C228.529 166.511 227.544 167.387 227.469 169.481C227.335 173.299 231.997 175.4 232.079 181.647C232.16 187.897 224.925 195.688 224.925 195.688L211.438 209L197.951 195.688C197.951 195.688 190.717 187.897 190.797 181.647C190.88 175.4 195.541 173.299 195.405 169.481C195.335 167.496 194.423 166.609 194.167 166.37L194.097 166.307C193.849 166.078 192.942 165.203 190.957 165.135C187.088 165.001 184.961 169.602 178.628 169.682C172.296 169.765 164.402 162.623 164.402 162.623L150.915 149.311L150.876 149.275L150.915 149.233L164.402 135.924C164.402 135.924 172.296 128.782 178.628 128.862C184.961 128.945 187.088 133.546 190.957 133.412C193.09 133.337 193.961 132.325 194.143 132.147L194.172 132.121C194.347 131.943 195.332 131.068 195.405 128.974C195.541 125.156 190.88 123.055 190.797 116.808C190.717 110.558 197.951 102.766 197.951 102.766L211.438 89.4545Z" stroke="#2C5465" stroke-width="2" mask="url(#path-4-inside-3_37_150)"/>
</g>
<defs>
<clipPath id="clip0_37_150">
<rect width="209" height="212" fill="white" transform="matrix(-1.19249e-08 -1 -1 1.19249e-08 212 209)"/>
</clipPath>
</defs>
</svg>
