<svg width="608" height="79" viewBox="0 0 608 79" fill="none" xmlns="http://www.w3.org/2000/svg">
<g clip-path="url(#clip0_0_56)">
<mask id="mask0_0_56" style="mask-type:luminance" maskUnits="userSpaceOnUse" x="0" y="23" width="316" height="34">
<path d="M315.515 23.578H0V56.022H315.515V23.578Z" fill="white"/>
</mask>
<g mask="url(#mask0_0_56)">
<path d="M27.7989 29.6368H27.7486L28.4775 27.9925C28.8294 27.0818 29.0305 26.4493 29.0682 26.1078C29.1059 25.7663 29.1185 25.526 29.1185 25.3995C29.1185 25.0959 29.0808 24.8556 29.0179 24.6658C28.9174 24.3876 28.7414 24.2105 28.4901 24.1219H32.9012C32.5745 24.2105 32.2352 24.4002 31.8833 24.6658C31.5942 24.9062 31.2549 25.2856 30.8904 25.8042C30.5134 26.3228 30.1364 27.0312 29.7468 27.9419L19.4542 52.8726C19.2657 53.4797 19.1651 53.9856 19.1651 54.3778C19.1651 54.441 19.1652 54.5928 19.1903 54.8331C19.2029 55.0734 19.2908 55.3011 19.4542 55.5161C19.6176 55.7565 19.8438 55.9209 20.1328 56.0094H13.0072C13.2334 55.9462 13.3968 55.7818 13.4973 55.5161C13.5601 55.3264 13.5978 55.0861 13.5978 54.7825C13.5978 54.656 13.5978 54.4536 13.5727 54.1627C13.5601 53.8718 13.3842 53.3406 13.07 52.5437L2.62657 27.0438C2.33753 26.3987 2.03591 25.8928 1.73429 25.5133C1.43268 25.1338 1.14363 24.8429 0.879717 24.6279C0.552967 24.3876 0.263919 24.2231 0.0125732 24.1219H7.1508C6.92459 24.2105 6.76122 24.4002 6.66068 24.6658C6.62298 24.8176 6.61041 25.0327 6.61041 25.2983C6.61041 25.4248 6.61041 25.6271 6.63554 25.9307C6.64811 26.2343 6.82405 26.7782 7.1508 27.5751L17.8707 53.8212" fill="#2C5465"/>
<path d="M68.8312 52.3793C68.8312 53.1635 68.9066 53.7959 69.0448 54.2766C69.1956 54.7446 69.359 55.0987 69.5601 55.3517C69.7486 55.63 69.9748 55.7944 70.2387 55.8577H63.113C63.3644 55.7944 63.6157 55.63 63.8419 55.3517C64.0053 55.1114 64.1561 54.7699 64.3069 54.3272C64.4577 53.8845 64.5206 53.2647 64.5206 52.4805V27.3347C64.5206 26.5505 64.4452 25.9307 64.3069 25.488C64.1561 25.0453 64.0053 24.7038 63.8419 24.4635C63.6157 24.1852 63.377 24.0208 63.113 23.9575H70.2387C69.9874 24.0208 69.7486 24.1852 69.5601 24.4635C69.3716 24.7038 69.1956 25.058 69.0448 25.5133C68.9066 25.9687 68.8312 26.6011 68.8312 27.4233V52.3919V52.3793Z" fill="#2C5465"/>
<path d="M134.659 52.3792C134.659 53.1634 134.735 53.7959 134.873 54.2765C135.024 54.7445 135.187 55.0987 135.388 55.3517C135.589 55.6299 135.803 55.7944 136.067 55.8576H129.268C129.469 55.7944 129.645 55.6299 129.796 55.3517C129.959 55.1113 130.085 54.7698 130.185 54.3524C130.286 53.9224 130.336 53.3152 130.336 52.531V25.0579C129.331 25.1212 128.175 25.3741 126.868 25.8295C125.561 26.2848 124.316 26.9805 123.122 27.9165C121.941 28.8652 120.948 30.0668 120.144 31.5467C119.34 33.014 118.938 34.7975 118.938 36.8971V40.4514H117.58V36.9477C117.58 34.848 117.166 33.0899 116.324 31.6353C115.482 30.1933 114.464 29.0043 113.27 28.081C112.076 27.1576 110.819 26.4619 109.512 26.0066C108.205 25.5512 107.099 25.2856 106.194 25.235V52.531C106.194 53.3152 106.257 53.935 106.37 54.3524C106.483 54.7825 106.596 55.1113 106.735 55.3517C106.898 55.6299 107.074 55.7944 107.263 55.8576H100.476C100.728 55.7944 100.979 55.6299 101.205 55.3517C101.368 55.1113 101.519 54.7572 101.67 54.2765C101.821 53.8085 101.884 53.1761 101.884 52.3792V27.4106C101.884 26.5884 101.808 25.956 101.67 25.5006C101.532 25.0453 101.368 24.6911 101.205 24.4508C100.979 24.1725 100.728 24.0081 100.476 23.9448H105.478C106.421 23.9448 107.501 24.0966 108.758 24.4002C110.002 24.7038 111.246 25.2097 112.491 25.9307C113.735 26.639 114.878 27.575 115.934 28.7134C116.977 29.8518 117.769 31.2558 118.284 32.9254C118.799 31.2179 119.579 29.8012 120.609 28.6628C121.64 27.5244 122.771 26.6011 123.977 25.9054C125.196 25.2097 126.428 24.7038 127.684 24.4002C128.941 24.0966 130.072 23.9448 131.078 23.9448H136.079C135.815 24.0081 135.589 24.1725 135.401 24.4508C135.212 24.6911 135.036 25.0453 134.885 25.5006C134.747 25.956 134.672 26.5884 134.672 27.4106V52.3792H134.659Z" fill="#2C5465"/>
<path d="M170.878 39.6166C170.878 41.6531 171.116 43.5757 171.581 45.3844C172.046 47.1932 172.75 48.7617 173.668 50.1024C174.585 51.4432 175.741 52.493 177.136 53.2646C178.519 54.0362 180.14 54.4283 181.987 54.4283C183.835 54.4283 185.443 54.0362 186.838 53.2646C188.233 52.493 189.389 51.4305 190.307 50.1024C191.224 48.7617 191.915 47.1932 192.368 45.3844C192.82 43.5757 193.046 41.6531 193.046 39.6166C193.046 37.5802 192.82 35.6196 192.368 33.8361C191.915 32.04 191.224 30.4842 190.307 29.1435C189.389 27.8027 188.233 26.7528 186.838 25.9813C185.443 25.2097 183.822 24.8176 181.987 24.8176C180.152 24.8176 178.519 25.2097 177.136 25.9813C175.741 26.7528 174.585 27.8153 173.668 29.1435C172.75 30.4842 172.046 32.04 171.581 33.8361C171.116 35.6323 170.878 37.5549 170.878 39.6166ZM181.987 23.578C184.149 23.578 186.185 24.0081 188.082 24.8555C189.967 25.703 191.626 26.854 193.059 28.3213C194.479 29.7759 195.61 31.4835 196.427 33.4314C197.256 35.3793 197.659 37.441 197.659 39.6293C197.659 41.8175 197.244 43.8792 196.427 45.8272C195.598 47.7751 194.479 49.47 193.059 50.9246C191.639 52.3792 189.98 53.5429 188.082 54.3904C186.185 55.2378 184.161 55.6679 181.987 55.6679C179.813 55.6679 177.777 55.2378 175.879 54.3904C173.969 53.5429 172.298 52.3919 170.878 50.9246C169.458 49.47 168.327 47.7624 167.51 45.8272C166.68 43.8792 166.266 41.8175 166.266 39.6293C166.266 37.441 166.68 35.3793 167.51 33.4314C168.339 31.4835 169.458 29.7885 170.878 28.3213C172.298 26.8667 173.969 25.703 175.879 24.8555C177.79 24.0081 179.826 23.578 181.987 23.578Z" fill="#2C5465"/>
<path d="M233.551 24.9947V46.7758C234.581 44.5876 236.014 42.9306 237.849 41.7796C239.671 40.6412 241.971 39.9834 244.711 39.7937C245.678 39.7305 246.52 39.5028 247.237 39.0854C247.953 38.668 248.544 38.1367 249.034 37.4663C249.524 36.7959 249.888 36.0244 250.127 35.139C250.366 34.2535 250.492 33.3175 250.492 32.3183C250.492 30.3071 250.002 28.6248 249.009 27.2335C248.016 25.8548 246.558 25.0958 244.623 24.982H233.563L233.551 24.9947ZM249.511 55.6552C249.8 55.592 250.064 55.4402 250.291 55.1999C250.492 54.9595 250.63 54.6686 250.73 54.3271C250.831 53.9982 250.869 53.6441 250.869 53.2773C250.869 52.999 250.856 52.6954 250.818 52.3666C250.429 49.8495 249.574 47.6992 248.267 45.9157C246.96 44.1449 245.276 42.9053 243.24 42.197C243.077 42.1337 242.939 42.0958 242.826 42.0578C242.712 42.0325 242.574 41.9946 242.411 41.9693C242.059 41.906 241.72 41.8807 241.393 41.8807C241.066 41.8807 240.714 41.9313 240.325 42.0199C239.935 42.1084 239.571 42.2476 239.206 42.4246C238.238 42.9432 237.409 43.563 236.73 44.2714C236.052 44.9797 235.486 45.726 235.034 46.4975C234.581 47.2691 234.23 48.0407 233.991 48.8249C233.752 49.6091 233.589 50.3048 233.526 50.9499V52.1768C233.526 52.961 233.589 53.5935 233.714 54.0741C233.84 54.5421 233.991 54.8963 234.154 55.1493C234.343 55.4276 234.556 55.592 234.782 55.6552H227.845C228.109 55.592 228.348 55.4276 228.574 55.1493C228.738 54.909 228.888 54.5548 229.039 54.0741C229.19 53.6061 229.253 52.9737 229.253 52.1768V27.2082C229.253 26.386 229.177 25.7536 229.039 25.2982C228.888 24.8429 228.738 24.4887 228.574 24.2484C228.348 23.9701 228.109 23.8057 227.845 23.7424H246.282C247.45 23.7424 248.544 23.9575 249.574 24.4002C250.605 24.8429 251.51 25.45 252.289 26.2216C253.068 26.9932 253.684 27.9039 254.136 28.9537C254.589 30.0036 254.815 31.1167 254.815 32.3056C254.815 33.4946 254.589 34.5951 254.136 35.6323C253.684 36.6695 253.08 37.5675 252.314 38.3391C251.56 39.1107 250.655 39.7305 249.624 40.1858C248.581 40.6412 247.488 40.8688 246.319 40.8688C245.829 40.8688 245.352 40.8688 244.861 40.8941C244.371 40.9068 243.869 40.9447 243.353 41.008C244.773 41.3115 246.106 41.8175 247.337 42.5132C248.569 43.2089 249.662 44.0563 250.63 45.0682C251.598 46.0675 252.427 47.1932 253.131 48.4454C253.822 49.6977 254.325 51.0258 254.614 52.4551C254.802 53.1887 255.028 53.7579 255.267 54.188C255.506 54.618 255.745 54.9343 255.971 55.1493C256.235 55.4276 256.486 55.592 256.75 55.6552H249.474H249.511Z" fill="#2C5465"/>
<path d="M309.784 45.3591L309.935 25.0326C307.698 25.2097 305.36 25.7283 302.897 26.5631C300.434 27.3979 298.096 28.5869 295.859 30.1427C293.622 31.6858 291.649 33.6338 289.915 35.9485C288.181 38.2758 286.949 41.0459 286.195 44.2587C286.484 43.8286 286.786 43.3986 287.1 42.9432C287.401 42.4879 287.766 42.0831 288.193 41.7163C289.45 40.6285 290.895 39.781 292.516 39.1866C294.138 38.5921 295.834 38.3011 297.619 38.3011C298.875 38.3011 300.12 38.4656 301.351 38.7818C302.583 39.098 303.739 39.5787 304.82 40.1985C305.901 40.8182 306.881 41.5645 307.735 42.4246C308.59 43.2974 309.281 44.2714 309.796 45.3591M314.12 52.1895C314.12 52.9737 314.195 53.6061 314.333 54.0868C314.484 54.5548 314.647 54.909 314.836 55.1619C315.037 55.4402 315.263 55.6046 315.515 55.6679H308.716C308.917 55.5793 309.093 55.377 309.256 55.0734C309.419 54.8331 309.545 54.4915 309.646 54.0741C309.746 53.6441 309.796 53.0749 309.796 52.3413V50.2922C309.796 48.749 309.457 47.3197 308.778 46.0042C308.1 44.7014 307.208 43.563 306.089 42.6144C304.971 41.6531 303.676 40.9068 302.206 40.3502C300.735 39.8063 299.202 39.5281 297.619 39.5281C296.035 39.5281 294.64 39.7684 293.233 40.2617C291.825 40.755 290.568 41.438 289.45 42.3108C288.331 43.1962 287.414 44.2461 286.71 45.4856C285.994 46.7126 285.592 48.0533 285.504 49.5206V52.2148C285.504 52.9737 285.554 53.5808 285.655 54.0362C285.755 54.4915 285.881 54.8457 286.044 55.086C286.17 55.3643 286.333 55.554 286.522 55.6805H282.789C283.041 55.6173 283.292 55.4528 283.518 55.1746C283.682 54.9342 283.832 54.5801 283.983 54.0994C284.134 53.6314 284.197 52.999 284.197 52.2021L284.247 51.1017V49.4573C284.373 46.3331 284.901 43.5251 285.831 41.0459C286.748 38.5668 287.954 36.3912 289.425 34.4812C290.895 32.5839 292.567 30.9522 294.452 29.5988C296.324 28.2454 298.272 27.1449 300.296 26.2722C302.319 25.3994 304.342 24.767 306.366 24.3622C308.389 23.9575 310.274 23.7424 312.021 23.7424H315.565C315.301 23.8057 315.075 23.9701 314.886 24.2484C314.698 24.4887 314.522 24.8429 314.384 25.2982C314.245 25.7536 314.17 26.386 314.17 27.2082V52.1768L314.12 52.1895Z" fill="#2C5465"/>
</g>
<mask id="mask1_0_56" style="mask-type:luminance" maskUnits="userSpaceOnUse" x="190" y="63" width="125" height="16">
<path d="M314.246 63.1813H190.596V78.9037H314.246V63.1813Z" fill="white"/>
</mask>
<g mask="url(#mask1_0_56)">
<path d="M210.905 71.58C207.964 73.5785 204.923 75.4632 201.567 76.7154C198.928 77.7653 195.686 78.7013 192.946 77.3479C190.408 76.083 190.006 72.7311 191.325 70.429C192.444 68.3293 195.887 66.2296 197.923 68.4431C198.426 68.9744 197.521 69.9104 197.006 69.278C196.088 68.2281 194.366 68.9617 193.462 69.6954C192.645 70.3278 192.041 71.3776 191.84 72.4275C191.539 73.7936 191.941 75.2608 193.059 76.0956C193.964 76.7281 195.183 76.8293 196.302 76.8293C198.74 76.7281 201.278 75.6782 203.503 74.6284C205.84 73.3761 208.178 72.0101 210.302 70.5428C211.018 70.1254 211.621 71.1753 210.918 71.5927" fill="#2C5465"/>
<path d="M236.052 71.8837C233.715 73.566 231.49 75.3494 229.052 76.9179C227.129 78.0689 224.49 79.5362 222.153 78.6002C219.815 77.5503 219.715 75.3494 220.33 73.1486C218.709 74.717 216.874 75.9819 214.549 76.5005C212.627 76.9179 210.792 76.0831 210.088 74.0846C209.372 71.7825 210.591 69.4678 211.709 67.4819C212.111 66.8495 213.129 67.4819 212.727 68.1144C211.822 69.7966 210.591 71.7825 211.307 73.781C212.124 76.0831 214.449 75.4633 216.171 74.6158C219.413 73.1486 221.549 70.2141 223.372 67.2795C223.774 66.6471 224.792 67.2795 224.39 67.912C223.271 69.6955 222.052 71.6813 221.449 73.781C220.733 75.6657 221.751 77.6642 223.887 77.6642C226.124 77.563 228.248 75.9945 229.97 74.7297C231.892 73.4774 233.627 72.1114 235.449 70.7453C236.065 70.3279 236.668 71.3777 236.065 71.8963" fill="#2C5465"/>
<path d="M255.016 71.58C252.075 73.5785 249.034 75.4632 245.678 76.7154C243.039 77.7653 239.797 78.7013 237.057 77.3479C234.518 76.083 234.116 72.7311 235.436 70.429C236.554 68.3293 239.998 66.2296 242.034 68.4431C242.536 68.9744 241.632 69.9104 241.116 69.278C240.199 68.2281 238.477 68.9617 237.572 69.6954C236.755 70.3278 236.152 71.3776 235.951 72.4275C235.65 73.7936 236.052 75.2608 237.17 76.0956C238.075 76.7281 239.294 76.8293 240.413 76.8293C242.851 76.7281 245.389 75.6782 247.614 74.6284C249.951 73.3761 252.276 72.0101 254.413 70.5428C255.129 70.1254 255.732 71.1753 255.028 71.5927" fill="#2C5465"/>
<path d="M257.857 64.9647C257.656 64.7497 257.756 64.3323 258.058 64.1299C258.46 63.9275 258.862 63.6113 259.277 63.2951C259.579 63.0801 259.981 63.1939 260.094 63.4975C260.295 63.8137 260.194 64.1299 259.893 64.3323C259.491 64.6485 259.089 64.9647 258.674 65.281C258.372 65.3821 257.958 65.281 257.857 64.9647ZM270.135 71.15C268.112 72.8323 265.774 74.2995 263.537 75.6656C261.3 76.9178 258.46 77.9676 255.934 77.7653C253.911 77.5502 252.378 76.083 252.792 73.8821C252.993 72.7311 253.71 71.6812 254.313 70.7326C255.029 69.4803 255.934 68.3167 256.852 67.1656C257.354 66.5332 258.272 67.4818 257.769 68.0004C256.952 68.9491 256.148 69.9989 255.532 71.0488C254.929 71.8836 254.313 72.8323 254.011 73.8821C253.295 76.3992 256.135 76.7154 257.97 76.3992C260.107 75.9818 262.13 75.0331 263.952 73.8821C265.774 72.8323 267.609 71.6812 269.331 70.3152C269.834 69.7839 270.751 70.6314 270.135 71.15Z" fill="#2C5465"/>
<path d="M294.88 71.4663C293.057 72.9336 291.021 74.4008 288.998 75.5645C286.962 76.7155 284.235 77.7654 281.897 76.7155C279.761 75.7669 278.856 73.2498 277.939 71.1501C277.537 70.3153 277.034 69.1642 276.016 68.848C274.696 68.3168 273.176 69.063 272.258 69.999C269.921 72.1999 268.501 75.5645 266.98 78.499C266.578 79.1314 265.661 78.499 265.962 77.8666C267.483 74.4008 269.003 70.9477 270.637 67.5831C270.939 66.8495 271.957 67.4819 271.655 68.2156C271.454 68.5318 271.253 68.9492 271.152 69.3666C271.353 69.1516 271.555 68.9492 271.768 68.7342C273.49 67.3681 276.129 66.7483 277.75 68.5318C279.17 70.1002 279.573 72.415 280.792 74.1984C282.614 77.0317 286.271 75.7669 288.596 74.4135C290.531 73.2624 292.353 71.9975 293.975 70.6315C294.578 70.1002 295.395 70.9477 294.892 71.4663" fill="#2C5465"/>
<path d="M314.246 71.4663C311.204 73.781 308.163 76.0831 304.506 77.133C301.867 77.9678 298.323 78.3978 295.784 77.2342C293.447 76.0831 292.944 73.2498 293.962 71.0489C293.962 70.9477 294.063 70.8339 294.063 70.7327C294.666 69.4805 295.784 68.3168 296.903 67.482C297.607 66.9507 299.027 66.6472 299.643 67.6843C300.145 68.6204 299.14 69.784 298.423 70.3026C297.406 71.0363 296.199 71.4537 294.879 71.7699C294.678 72.5035 294.578 73.3383 294.678 74.072C295.081 75.5392 296.3 76.2729 297.619 76.4879C300.56 77.0191 303.601 76.2855 306.341 75.1218C308.98 73.9708 311.305 72.0861 313.743 70.4038" fill="#2C5465"/>
<path d="M295.885 70.1003C295.818 70.1677 295.784 70.2394 295.784 70.3153C296.702 69.9991 297.506 69.6829 298.122 68.9492C298.222 68.7342 298.625 68.418 298.424 68.2156C298.323 67.8994 297.305 68.7342 297.204 68.848C296.702 69.2654 296.287 69.6829 295.885 70.1003Z" fill="#2C5465"/>
</g>
<path d="M405.749 39.819L397.165 31.1799C397.165 31.1799 392.138 26.5378 388.104 26.5884C384.07 26.639 382.713 29.6241 380.25 29.5482C378.968 29.4976 378.402 28.9158 378.239 28.7514L378.201 28.7008C378.05 28.5363 377.485 27.9545 377.447 26.6896C377.359 24.2105 380.325 22.8444 380.388 18.7841C380.438 14.7239 375.826 9.66439 375.826 9.66439L367.23 1.0253L367.205 1L367.18 1.0253L358.596 9.66439C358.596 9.66439 353.984 14.7239 354.034 18.7841C354.085 22.8444 357.05 24.2105 356.975 26.6896C356.925 28.0557 356.271 28.6122 356.158 28.7261H356.146C356.032 28.8525 355.467 29.485 354.11 29.5356C351.646 29.6241 350.289 26.639 346.255 26.5758C342.221 26.5252 337.194 31.1673 337.194 31.1673L328.611 39.8064L337.194 48.4455C337.194 48.4455 342.221 53.0875 346.255 53.037C350.289 52.9864 351.646 50.0013 354.11 50.0771C355.392 50.1277 355.957 50.7096 356.12 50.874L356.158 50.912C356.309 51.0764 356.874 51.6582 356.912 52.9231C357 55.4023 354.034 56.7683 353.971 60.8286C353.921 64.8888 358.533 69.9483 358.533 69.9483L367.117 78.5874L367.142 78.6127L367.167 78.5874L375.751 69.9483C375.751 69.9483 380.363 64.8888 380.312 60.8286C380.262 56.7683 377.296 55.4023 377.372 52.9231C377.422 51.557 378.076 51.0005 378.189 50.8867H378.201C378.314 50.7602 378.88 50.1277 380.237 50.0771C382.7 49.9886 384.058 52.9737 388.092 53.037C392.126 53.0875 397.153 48.4455 397.153 48.4455L405.736 39.8064L405.749 39.819ZM366.036 49.1158V67.2921C366.036 70.0622 366.036 70.9096 364.729 71.4156C364.729 71.4156 363.661 71.833 362.831 70.9602C362.002 70.0875 356.686 62.9662 356.686 62.9662C356.686 62.9662 355.944 62.1188 355.718 60.9804C355.718 60.9804 354.625 58.2229 357.327 54.8837C359.966 51.6076 362.819 48.5719 361.022 46.2066L360.959 46.1434C358.609 44.2334 355.593 47.2059 352.338 49.8621C349.02 52.569 346.28 51.4812 346.28 51.4812C345.149 51.2408 344.307 50.5072 344.307 50.5072C344.307 50.5072 337.219 45.1441 336.365 44.322C335.497 43.4871 335.912 42.412 335.912 42.412C336.415 41.0965 337.257 41.0965 340.009 41.0965H358.068C358.068 41.0965 361.11 40.8689 363.812 43.348H363.824C366.275 46.0928 366.049 49.1538 366.049 49.1538M363.849 36.3406L363.786 36.4165C361.085 38.883 358.056 38.668 358.056 38.668H339.997C337.244 38.668 336.402 38.668 335.9 37.3525C335.9 37.3525 335.485 36.2774 336.352 35.4425C337.219 34.6077 344.295 29.2573 344.295 29.2573C344.295 29.2573 345.137 28.511 346.268 28.2834C347.009 28.1316 348.04 27.9545 350.465 30.1174C351.496 31.2305 352.69 31.8503 354.198 31.8756C354.198 31.8756 354.248 31.8756 354.273 31.8756C357.05 31.8756 359.313 29.6115 359.313 26.8034C359.313 26.7655 359.313 26.7276 359.313 26.6896C359.287 25.1718 358.672 23.9701 357.566 22.9329C355.429 20.4917 355.593 19.4545 355.743 18.7082C355.97 17.5699 356.711 16.7224 356.711 16.7224C356.711 16.7224 362.04 9.5885 362.857 8.72839C363.686 7.85562 364.754 8.27303 364.754 8.27303C366.061 8.77898 366.061 9.62645 366.061 12.3965V30.5728C366.061 30.5728 366.287 33.6338 363.824 36.3533M368.286 30.5728V12.3965C368.286 9.62645 368.286 8.77898 369.593 8.27303C369.593 8.27303 370.661 7.85562 371.49 8.72839C372.32 9.60115 377.636 16.7224 377.636 16.7224C377.636 16.7224 378.377 17.5699 378.603 18.7082C378.603 18.7082 379.697 21.4657 376.995 24.8049C374.356 28.081 371.503 31.1167 373.3 33.482L373.363 33.5452C375.713 35.4552 378.729 32.4827 381.984 29.8265C385.302 27.1197 388.041 28.2075 388.041 28.2075C389.172 28.4351 390.014 29.1814 390.014 29.1814C390.014 29.1814 397.102 34.5445 397.957 35.3667C398.824 36.2015 398.409 37.2766 398.409 37.2766C397.907 38.5921 397.065 38.5921 394.312 38.5921H376.253C376.253 38.5921 373.212 38.8198 370.51 36.3406H370.497C368.047 33.5958 368.26 30.5348 368.26 30.5348M397.995 44.2461C397.128 45.0809 390.04 50.4313 390.04 50.4313C390.04 50.4313 389.198 51.1776 388.067 51.4053C387.325 51.557 386.295 51.7341 383.869 49.5712C382.839 48.4581 381.645 47.8383 380.137 47.813C380.137 47.813 380.086 47.813 380.061 47.813C377.284 47.813 375.022 50.0771 375.022 52.8852C375.022 52.9231 375.022 52.9611 375.022 52.999C375.047 54.5169 375.663 55.7311 376.768 56.7557C378.905 59.1969 378.742 60.2341 378.591 60.9804C378.365 62.1188 377.623 62.9662 377.623 62.9662C377.623 62.9662 372.295 70.1001 371.478 70.9602C370.648 71.833 369.58 71.4156 369.58 71.4156C368.273 70.9096 368.273 70.0622 368.273 67.2921V49.1158C368.273 49.1158 368.047 46.0548 370.51 43.3354L370.573 43.2595C373.275 40.793 376.304 41.008 376.304 41.008H394.363C397.115 41.008 397.957 41.008 398.46 42.3235C398.46 42.3235 398.874 43.3986 398.007 44.2334" fill="#2C5465"/>
<path d="M360.468 30.9396C359.324 30.9396 358.394 31.8756 358.394 33.0266C358.394 34.1777 359.324 35.1137 360.468 35.1137C361.611 35.1137 362.541 34.1777 362.541 33.0266C362.541 31.8756 361.611 30.9396 360.468 30.9396Z" fill="#2C5465"/>
<path d="M373.877 44.5117C372.733 44.5117 371.803 45.4477 371.803 46.5988C371.803 47.7498 372.733 48.6858 373.877 48.6858C375.021 48.6858 375.951 47.7498 375.951 46.5988C375.951 45.4477 375.021 44.5117 373.877 44.5117Z" fill="#2C5465"/>
</g>
<path d="M440.372 2.08203V77.2807" stroke="#2C5465" stroke-width="3" stroke-linecap="round"/>
<path d="M528.02 42.0521H538.377C543.858 42.0521 547.025 45.3091 547.025 50.0125C547.025 54.8054 543.941 58.0626 539.065 58.0626H528.02V42.0521ZM528.02 20.9076H537.863C541.545 20.9076 543.684 23.0473 543.684 26.3878C543.684 29.7288 541.114 31.8682 537.266 31.8682H528.02V20.9076ZM502.633 36.7449L516.038 18.6366V56.2279L502.633 36.7449ZM508.537 10.3535L488.935 37.0497V10.3535H477V68.6169H488.941V52.5048L494.588 45.7396L510.085 68.6171H539.584C551.74 68.6171 559.103 60.9793 559.103 50.6224C559.103 43.3432 555.255 38.0362 547.288 36.1536C552.338 34.5282 555.506 30.8466 555.506 25.45C555.506 17.2325 549.428 10.3539 538.557 10.3539H508.537V10.3535Z" fill="#2C5465"/>
<path d="M570.375 10.3535H558.368V68.6827H570.375V10.3535Z" fill="#2C5465"/>
<path d="M565.665 57.2319L575.442 51.5724C578.018 55.7739 581.359 58.8636 587.281 58.8636C592.26 58.8636 595.433 56.3774 595.433 52.947C595.433 48.8293 592.17 47.3709 586.684 44.9686L583.684 43.6836C575.018 39.9963 569.269 35.3647 569.269 25.5812C569.269 16.5748 576.13 9.70801 586.857 9.70801C594.495 9.70801 599.981 12.3676 603.932 19.3182L594.579 25.3244C592.517 21.6369 590.288 20.1788 586.857 20.1788C583.343 20.1788 581.108 22.4081 581.108 25.3244C581.108 28.9282 583.337 30.3863 588.483 32.6155L591.483 33.9003C601.691 38.2749 607.44 42.7393 607.44 52.7737C607.44 63.5849 598.948 69.5015 587.539 69.5015C576.393 69.5013 569.185 64.1825 565.665 57.2319Z" fill="#2C5465"/>
<defs>
<clipPath id="clip0_0_56">
<rect width="405.748" height="77.9036" fill="white" transform="translate(0 1)"/>
</clipPath>
</defs>
</svg>
