<svg width="27" height="27" viewBox="0 0 27 27" fill="none" xmlns="http://www.w3.org/2000/svg">
<path id="Vector" d="M27 13.5L23.9934 10.4936C23.9934 10.4936 22.2337 8.88091 20.8222 8.89881C19.4112 8.91724 18.9366 9.9564 18.0743 9.92659C17.6261 9.91088 17.4257 9.70707 17.3718 9.65013L17.3576 9.63441C17.3059 9.57913 17.1082 9.37694 17.0928 8.93458C17.0626 8.07216 18.1018 7.59783 18.1199 6.18625C18.1386 4.7752 16.5255 3.01505 16.5255 3.01505L13.5189 0.00866788L13.5102 0L13.5014 0.00866788L10.4954 3.01506C10.4954 3.01506 8.88229 4.7752 8.90041 6.18626C8.91909 7.59784 9.95824 8.07216 9.92803 8.93458C9.911 9.40999 9.68251 9.60408 9.64242 9.64471L9.63638 9.65122C9.59629 9.69026 9.39856 9.90979 8.92566 9.9266C8.06335 9.95641 7.58882 8.91724 6.17783 8.89881C4.76629 8.88091 3.00652 10.4936 3.00652 10.4936L0 13.5L3.00653 16.5064C3.00653 16.5064 4.76629 18.1191 6.17784 18.1012C7.58883 18.0828 8.06336 17.0436 8.92567 17.0739C9.37385 17.0896 9.57432 17.2929 9.62814 17.3499L9.64242 17.3656C9.69406 17.4209 9.89178 17.6231 9.90717 18.0654C9.93737 18.9278 8.89821 19.4022 8.88008 20.8137C8.8614 22.2253 10.4745 23.9849 10.4745 23.9849L13.4811 26.9913L13.4893 27L13.4986 26.9913L16.5046 23.9849C16.5046 23.9849 18.1177 22.2253 18.0996 20.8137C18.0809 19.4022 17.0418 18.9278 17.072 18.0654C17.089 17.59 17.3175 17.3959 17.3576 17.3553L17.3636 17.3488C17.4037 17.3097 17.6014 17.0902 18.0743 17.0739C18.9366 17.0436 19.4112 18.0828 20.8222 18.1012C22.2337 18.1191 23.9934 16.5064 23.9934 16.5064L27 13.5Z" fill="white"/>
</svg>
